<svg version="1.1" id="Layer_1" xmlns="http://www.w3.org/2000/svg" xmlns:xlink="http://www.w3.org/1999/xlink" x="0px" y="0px"
	 width="100%" viewBox="0 0 500 500" enable-background="new 0 0 500 500" xml:space="preserve">
<path fill="#000000" opacity="1.000000" stroke="none" 
	d="
M342.000000,501.000000 
	C228.000031,501.000000 114.500053,501.000000 1.000061,501.000000 
	C1.000041,334.333405 1.000041,167.666794 1.000020,1.000150 
	C167.666565,1.000100 334.333130,1.000100 500.999756,1.000050 
	C500.999847,167.666519 500.999847,334.333038 500.999939,500.999786 
	C448.166656,501.000000 395.333344,501.000000 342.000000,501.000000 
M327.736145,212.646423 
	C327.548584,212.419403 327.341156,212.212234 326.347900,212.027344 
	C324.195953,212.730667 322.044037,213.433990 320.236450,214.024750 
	C317.919830,212.554916 315.632660,211.285294 313.566406,209.723373 
	C312.363983,208.814407 310.701569,207.478729 310.639099,206.263412 
	C310.205536,197.831818 309.927917,189.379486 310.005890,180.937546 
	C310.101990,170.540115 310.810669,160.145874 310.790466,149.751160 
	C310.783661,146.237854 309.782928,142.561035 308.477020,139.259308 
	C306.987488,135.493301 295.753693,132.361191 293.393951,134.946594 
	C290.362854,138.267548 287.880829,142.089691 285.162292,145.695908 
	C285.297607,146.217743 285.432892,146.739578 285.568176,147.261414 
	C289.907318,147.431137 294.350372,148.254868 298.556366,147.586517 
	C302.757324,146.918961 304.381287,148.493240 304.412323,152.015030 
	C304.472931,158.902328 304.102478,165.793411 303.872314,173.674255 
	C303.908447,181.797531 303.944580,189.920807 304.003387,198.940277 
	C304.061462,207.038498 304.061462,207.031693 295.919189,207.040405 
	C292.947540,207.043579 289.975952,207.087494 286.318481,206.744171 
	C285.879425,204.556320 285.234436,202.386627 285.039490,200.177231 
	C284.426392,193.228088 278.397644,187.166916 271.704315,187.132263 
	C258.841583,187.065704 245.967377,187.398544 233.119675,186.947021 
	C225.735962,186.687515 217.011948,192.746384 217.528397,202.300156 
	C217.736237,206.144775 216.037491,208.228973 211.482803,207.941925 
	C211.482803,207.941925 210.990005,207.970001 210.521149,207.938766 
	C210.521149,207.938766 210.051575,207.921677 209.327606,207.531860 
	C207.848099,207.371887 206.370697,207.098312 204.888733,207.070892 
	C196.978943,206.924469 197.018600,206.945358 196.938675,199.051361 
	C196.899658,195.198776 196.679352,191.347992 196.530579,187.203308 
	C189.574005,188.639267 190.811127,193.264175 191.072739,196.949371 
	C191.584946,204.164612 191.384277,210.706116 182.089371,212.896515 
	C181.751709,212.937012 181.414062,212.977509 180.693985,212.216171 
	C167.473495,212.133179 154.253052,212.035919 141.032455,212.010468 
	C140.390396,212.009216 139.747131,212.638535 138.502869,213.334381 
	C133.926056,215.395218 132.828705,218.937424 132.937546,223.823334 
	C133.256134,238.125534 133.022568,252.439514 133.057159,266.748749 
	C133.074402,273.877441 135.055786,275.885498 142.292786,275.990326 
	C148.946503,276.086700 155.618073,276.271667 162.252350,275.896698 
	C166.294998,275.668182 168.407501,277.621063 169.987152,280.729797 
	C171.099014,282.917938 171.967087,285.229919 173.316406,288.346802 
	C170.959000,288.477753 168.829163,288.233704 166.934998,288.790863 
	C164.436615,289.525726 160.315369,290.577972 160.063492,292.040161 
	C159.253143,296.744171 156.092697,296.416870 152.947815,297.063629 
	C151.376678,297.386749 149.955444,298.438751 148.466385,299.161041 
	C149.901596,300.171387 151.263092,301.926178 152.783432,302.076721 
	C167.771805,303.560974 182.786530,304.778870 198.765076,306.105225 
	C205.570404,306.091492 212.375717,306.077759 219.962906,306.283783 
	C224.338486,306.508820 228.714081,306.733826 234.015259,306.985535 
	C246.671585,306.988190 259.327911,306.990814 272.756195,306.999176 
	C278.358246,306.656311 283.956787,306.234222 289.562988,305.985229 
	C307.341034,305.195618 325.128479,304.593445 342.897400,303.640808 
	C347.811615,303.377319 352.673889,302.145325 357.559967,301.357727 
	C357.593018,300.415802 357.626038,299.473877 357.659058,298.531952 
	C345.989227,293.148010 332.326019,296.521027 319.174866,291.789703 
	C321.051697,289.084106 322.608398,287.149231 323.825806,285.020355 
	C326.329498,280.642212 330.739960,276.066406 330.545654,271.743683 
	C330.273010,265.677948 333.188446,261.584625 335.017273,256.691956 
	C335.538239,255.298233 335.034119,253.521347 334.932495,251.291351 
	C334.177185,248.878143 333.216553,248.604767 331.563538,251.437119 
	C330.740723,252.115753 329.917908,252.794388 329.095093,253.473022 
	C328.774139,253.264969 328.453217,253.056915 328.132263,252.848877 
	C330.005554,248.533798 331.878845,244.218735 333.558380,240.349945 
	C335.746033,245.410233 337.895905,250.302765 339.952789,255.234085 
	C340.237610,255.916901 340.067352,256.791321 340.099548,257.577362 
	C340.211578,260.311768 339.791901,263.200928 340.538116,265.749023 
	C342.160217,271.287903 344.012360,276.825195 346.475952,282.029114 
	C348.166351,285.599792 347.965454,290.186584 352.873413,292.345703 
	C356.952576,294.140167 364.159180,294.420319 368.193207,291.202026 
	C372.045624,288.128601 372.872498,283.691193 370.840637,278.573914 
	C368.716003,273.222900 366.649170,267.837067 364.865967,262.365753 
	C363.151764,257.106171 362.744629,250.931427 353.656830,251.618423 
	C360.114655,246.438904 356.480652,241.881897 354.698029,237.619736 
	C351.449738,229.853195 345.833069,239.094177 342.292755,236.772217 
	C342.891296,234.116623 343.373230,231.978256 343.880524,229.727493 
	C346.318512,231.757492 347.975983,230.730911 348.966064,227.422226 
	C349.479706,225.705933 350.408783,224.071945 351.371429,222.539780 
	C354.500885,217.558884 355.303864,210.773193 362.334045,208.806946 
	C367.938965,207.239319 370.995880,203.122162 372.312836,197.657455 
	C373.746887,191.706726 374.097778,185.756256 370.496857,180.379868 
	C368.163849,176.896484 364.947693,177.371216 363.140778,181.132767 
	C361.581512,184.378769 359.846313,187.540237 358.233124,190.653702 
	C351.354065,188.540070 351.001862,186.966309 354.564667,179.914673 
	C355.611969,177.841782 355.690277,175.279343 356.212677,172.941254 
	C353.841309,172.640305 351.475891,172.254166 349.095123,172.088333 
	C348.342773,172.035950 347.519012,172.507309 346.779358,172.849945 
	C336.206024,177.748001 331.643433,188.899292 335.657013,199.842087 
	C336.170135,201.241058 336.356506,202.759888 336.694244,204.223190 
	C336.029480,204.484421 335.364685,204.745651 334.699890,205.006882 
	C333.616974,202.730362 332.309204,200.530624 331.499847,198.160660 
	C330.007568,193.791016 327.859375,189.332138 327.809296,184.889862 
	C327.774048,181.763367 329.044342,179.055603 326.071564,176.521469 
	C323.801666,174.586456 321.978088,172.127869 319.756775,169.682938 
	C314.670898,178.580536 314.805115,180.071259 320.497437,186.953094 
	C321.230347,187.839142 321.861542,188.880310 322.269897,189.952469 
	C325.189850,197.618713 328.039795,205.311615 330.185211,212.997955 
	C329.455994,212.999039 328.726776,213.000122 328.000000,213.000000 
	C328.000000,213.000000 327.999725,213.001755 327.736145,212.646423 
M256.133636,107.460823 
	C256.427216,107.763557 256.720795,108.066292 257.014374,108.369026 
	C257.118317,108.260391 257.222260,108.151749 257.326202,108.043098 
	C256.878357,107.700233 256.430511,107.357368 256.209503,106.425690 
	C255.458054,104.688286 254.706604,102.950890 253.955170,101.213486 
	C253.470123,101.477013 252.985077,101.740532 252.500046,102.004059 
	C252.666107,104.275032 251.346191,107.449677 256.133636,107.460823 
M196.975281,147.964859 
	C196.975281,147.964859 196.947250,148.073471 197.892334,148.042984 
	C206.201050,147.998917 214.509766,147.954849 223.684891,147.915100 
	C234.484314,147.793533 245.283737,147.671982 256.083160,147.550430 
	C256.363831,146.950287 256.644470,146.350159 256.925110,145.750015 
	C253.910187,141.852280 250.895248,137.954529 246.958588,134.059113 
	C232.511688,134.056839 218.064682,134.026962 203.618057,134.088486 
	C201.878159,134.095886 200.140381,134.598236 197.625153,134.957001 
	C193.206757,136.451752 190.940033,139.473755 190.953705,144.195633 
	C190.980591,153.476532 190.864609,162.759659 191.059189,172.036591 
	C191.094711,173.730652 192.324936,175.399673 193.515305,177.443329 
	C194.323868,177.636200 195.132431,177.829071 196.760223,177.681961 
	C196.806396,168.130035 196.852554,158.578094 197.043335,148.518265 
	C197.056946,148.342758 197.070557,148.167252 196.975281,147.964859 
M158.553574,199.439941 
	C160.636612,201.139740 162.364258,201.649490 163.208008,198.255432 
	C163.835449,195.731522 164.680496,193.262268 165.331726,190.743591 
	C167.238708,183.368088 169.270554,176.015884 170.811523,168.563171 
	C171.082153,167.254364 169.215408,165.503601 168.335739,163.956955 
	C167.200089,165.020508 165.410019,165.893753 165.036255,167.178894 
	C162.810486,174.831833 160.803406,182.554184 158.961014,190.309784 
	C158.293549,193.119583 158.283005,196.085434 157.833771,199.053101 
	C157.833771,199.053101 157.834717,199.254486 157.834717,199.254486 
	C157.834717,199.254486 158.016937,199.023224 158.553574,199.439941 
M262.740570,161.689804 
	C263.202972,163.729126 263.019836,166.864456 264.254944,167.591949 
	C267.341248,169.409851 270.853149,172.633865 274.739624,169.925842 
	C278.303497,167.442581 281.242401,164.114059 279.991119,158.450378 
	C280.319275,154.967728 280.647400,151.485062 281.125336,147.321075 
	C282.646454,144.961761 283.942261,142.414459 285.727112,140.275162 
	C294.177673,130.146362 292.269440,116.656639 279.823547,110.251266 
	C272.705658,106.587997 260.883209,108.359283 255.979050,114.343826 
	C251.152679,120.233398 250.610321,134.952316 255.459503,139.939163 
	C258.125977,142.681320 260.134644,145.229843 260.304138,149.281769 
	C260.386719,151.255585 261.990997,153.165741 262.852020,155.759369 
	C262.906799,157.506607 262.961548,159.253845 262.740570,161.689804 
M330.671387,371.495941 
	C332.479553,371.638000 334.397552,372.205444 336.058319,371.776642 
	C337.218170,371.477234 338.855438,369.816193 338.858063,368.759766 
	C338.877014,361.146545 338.587952,353.530273 338.286865,345.919281 
	C338.035797,339.572540 336.697845,338.828949 329.512085,341.707794 
	C329.331024,347.790100 328.992798,353.873322 329.027130,359.954407 
	C329.048096,363.671783 329.641479,367.385864 330.671387,371.495941 
M232.000229,335.341034 
	C230.802567,336.867462 229.784714,339.493347 228.375092,339.723907 
	C223.169174,340.575348 217.775726,341.299286 212.559952,340.843842 
	C203.709061,340.070923 202.925323,340.388977 203.077988,349.302399 
	C203.100708,350.628662 203.390717,351.960388 203.318420,353.276489 
	C203.042587,358.297607 202.541626,363.310516 202.430527,368.333252 
	C202.405792,369.451324 203.363037,371.232635 204.314438,371.624176 
	C209.569595,373.786804 212.945786,371.405609 212.968979,365.805847 
	C212.974487,364.475555 212.967819,363.145203 212.969238,361.814880 
	C212.980881,350.922150 212.981064,350.922180 222.743469,346.796173 
	C228.418213,344.397797 231.902893,346.673859 231.992798,352.901306 
	C232.040787,356.225464 231.434616,359.659882 232.091599,362.844849 
	C232.697098,365.780304 233.894897,369.445099 236.095245,370.995575 
	C239.208328,373.189117 243.575806,374.321259 247.172791,371.079254 
	C248.223480,370.132233 249.089737,368.446869 249.095047,367.096252 
	C249.097733,366.409088 247.052567,365.600861 245.840332,365.052521 
	C244.536453,364.462799 242.005661,364.241364 241.936737,363.638885 
	C241.415573,359.082733 240.757904,354.370758 241.497070,349.932983 
	C241.763290,348.334717 245.742798,347.354919 248.692978,345.725464 
	C248.973404,343.839233 249.958939,340.540192 245.673599,340.229279 
	C241.934174,339.957977 241.079437,338.321686 240.748291,334.936920 
	C240.610840,333.531891 238.367279,331.728607 236.734085,331.218353 
	C234.388260,330.485474 231.981201,331.121704 232.000229,335.341034 
M130.389160,371.767242 
	C138.855438,372.377167 138.871399,372.363098 138.960526,364.124115 
	C138.965912,363.625580 139.002762,363.123749 138.960510,362.628937 
	C138.667358,359.195526 140.259720,357.915619 143.654388,357.899780 
	C146.423004,357.886902 149.244904,357.451813 151.944962,356.798157 
	C160.251678,354.787109 165.259140,348.312683 163.971802,340.698761 
	C162.602356,332.599182 158.159286,327.179199 147.949219,327.035919 
	C143.462982,326.972931 138.963150,327.226562 134.491608,326.962280 
	C130.395920,326.720184 128.903824,328.219788 128.981628,332.368530 
	C129.187241,343.333191 129.019714,354.304504 129.078979,365.272705 
	C129.090134,367.336243 129.463409,369.397827 130.389160,371.767242 
M197.842087,363.157318 
	C203.220612,350.220123 194.048706,337.666931 180.091187,339.132751 
	C172.544418,339.925323 167.138489,342.839966 165.288483,353.775909 
	C164.087738,360.873871 167.394913,368.005585 173.882263,371.252380 
	C180.380646,374.504761 193.897491,372.565216 197.842087,363.157318 
M353.757751,340.040741 
	C344.985352,342.394440 342.220123,352.034546 343.335449,360.559967 
	C344.266663,367.677704 349.687012,370.660919 355.407135,372.241089 
	C361.037964,373.796570 367.052612,372.911438 371.654999,368.663025 
	C379.249237,361.652832 377.892792,352.862579 374.434235,346.289246 
	C371.280029,340.294403 362.805420,337.835205 353.757751,340.040741 
M298.307404,339.953918 
	C288.432983,336.876404 277.438751,342.279236 275.988678,352.728058 
	C275.078705,359.284882 277.166290,366.743195 281.838898,369.540955 
	C289.131622,373.907532 298.998535,373.610413 304.192719,368.963043 
	C312.916656,361.157532 311.367340,343.241425 298.307404,339.953918 
M258.000977,365.354797 
	C258.729462,367.501892 259.049835,369.984070 260.396210,371.623779 
	C260.903046,372.240997 264.817627,371.433746 265.373383,370.350067 
	C266.517670,368.118744 266.706665,365.275269 266.818634,362.663544 
	C267.020111,357.963806 266.875549,353.249237 266.875549,348.488800 
	C269.868530,347.448730 275.107849,348.938385 274.301819,344.076569 
	C273.909027,341.707489 269.715088,339.968628 266.905273,337.669098 
	C267.772400,334.376648 267.773163,334.556396 272.071838,334.537903 
	C273.331146,334.532501 275.480499,333.342865 275.638733,332.423462 
	C275.900696,330.901855 275.361755,328.184662 274.318512,327.666779 
	C267.242279,324.153748 259.615265,326.816803 257.351105,334.107300 
	C256.684357,336.254181 255.446762,338.501099 253.827469,340.013367 
	C251.022400,342.633087 250.777054,345.066254 254.133759,346.664642 
	C257.551208,348.291931 257.965698,350.856445 257.986267,353.929321 
	C258.009613,357.417053 257.996796,360.905029 258.000977,365.354797 
M322.012451,337.928162 
	C322.216125,336.460724 322.649933,334.979919 322.565796,333.529175 
	C322.458588,331.680817 322.529938,329.178864 321.425476,328.205414 
	C320.226715,327.148804 317.535797,326.904449 315.936768,327.496857 
	C314.896393,327.882263 314.140045,330.388306 314.119385,331.955719 
	C313.970520,343.256348 314.023987,354.559906 314.050964,365.862457 
	C314.066254,372.271759 315.202332,373.009491 322.012238,371.157288 
	C322.012238,360.389862 322.012238,349.613342 322.012451,337.928162 
M177.265076,178.229660 
	C179.464462,179.620880 181.663849,181.012100 184.768188,182.975754 
	C181.920059,184.443176 179.769470,185.519348 177.650284,186.654129 
	C176.212158,187.424225 174.530228,188.018570 173.495056,189.173462 
	C172.660919,190.104065 172.632019,191.756393 172.245865,193.088516 
	C173.531677,193.440643 175.128052,194.462555 176.051956,194.034164 
	C181.310684,191.595825 186.553497,189.051147 191.511276,186.061020 
	C194.852341,184.045959 194.925888,181.072632 191.333176,179.100189 
	C185.874817,176.103485 180.208557,173.485474 174.634903,170.708740 
	C172.561691,174.106857 173.605942,176.275436 177.265076,178.229660 
M150.713654,172.478806 
	C147.732407,174.081924 144.732834,175.652039 141.773300,177.294281 
	C132.469559,182.456924 132.341095,183.202576 141.317215,188.715424 
	C145.151260,191.070175 149.551727,192.502716 154.004532,194.492737 
	C155.408936,185.803818 147.975845,186.272995 144.744766,183.006378 
	C148.537323,179.601898 154.865845,179.055679 154.988388,171.732620 
	C153.637680,171.887009 152.476974,172.019669 150.713654,172.478806 
M243.140625,180.282013 
	C249.293549,181.493729 257.806641,180.260498 261.605713,177.050491 
	C249.382309,177.094269 237.960663,176.706863 226.565750,177.286835 
	C226.579895,178.234802 226.594055,179.182785 226.608215,180.130753 
	C231.829178,180.130753 237.050156,180.130753 243.140625,180.282013 
M335.574005,154.730835 
	C333.550720,153.213730 331.527466,151.696625 328.976868,149.784149 
	C327.272278,151.841248 325.246338,154.286163 323.173676,156.787445 
	C325.079559,158.524063 327.261230,160.511978 330.462524,163.429001 
	C332.447784,160.531937 334.294617,157.836884 335.574005,154.730835 
M241.945206,172.890396 
	C247.813126,172.636673 253.841110,174.016495 259.539032,172.027893 
	C259.511169,171.440536 259.483276,170.853195 259.455414,170.265839 
	C248.603714,170.265839 237.752014,170.265839 226.900314,170.265839 
	C226.871292,171.006088 226.842255,171.746353 226.813232,172.486603 
	C229.109894,172.588135 231.405685,172.736893 233.703430,172.778320 
	C236.150528,172.822449 238.599426,172.764969 241.945206,172.890396 
M338.905579,332.440765 
	C337.657227,330.468353 336.810333,327.750641 335.019196,326.785797 
	C333.826782,326.143463 330.418152,327.489655 329.594269,328.885834 
	C328.768524,330.285187 329.185547,333.847870 330.351868,334.708313 
	C333.163361,336.782379 336.561432,336.987793 338.905579,332.440765 
M205.929214,118.257195 
	C207.232346,120.978584 208.535477,123.699966 209.872375,126.491844 
	C212.349365,123.825005 214.386169,121.632088 216.644272,119.200912 
	C213.584702,116.211296 210.518143,114.027008 205.929214,118.257195 
M176.812332,158.109894 
	C175.893616,156.206604 175.291275,153.999283 173.899246,152.550903 
	C173.348785,151.978149 170.408997,152.612274 169.688309,153.558472 
	C168.708115,154.845322 167.933502,157.922226 168.611877,158.540482 
	C170.878876,160.606506 173.824341,162.417526 176.812332,158.109894 
M211.656708,165.766693 
	C211.425980,163.435440 211.195236,161.104187 210.909012,158.212311 
	C209.894287,158.398819 207.945724,158.533051 206.174362,159.164413 
	C205.068069,159.558731 203.463196,160.691681 203.451263,161.513092 
	C203.433746,162.716019 204.401688,164.209991 205.389023,165.083191 
	C206.728149,166.267548 208.438553,167.083420 210.098877,167.806824 
	C210.403885,167.939713 211.228531,166.879990 211.656708,165.766693 
M222.698654,159.398941 
	C223.323273,158.252518 223.947891,157.106094 224.572525,155.959671 
	C223.971527,155.563446 223.370544,155.167206 222.769547,154.770981 
	C219.670639,159.324203 216.499008,163.831726 213.570969,168.492310 
	C213.230331,169.034500 214.238144,170.423874 215.076660,172.607697 
	C217.962921,167.578033 220.140961,163.782562 222.698654,159.398941 
M292.190247,170.011414 
	C289.179291,170.011414 286.168335,170.011414 282.215302,170.011414 
	C285.948029,173.619873 292.250000,173.891449 297.057495,171.069321 
	C295.308533,170.611069 294.177917,170.314819 292.190247,170.011414 
M296.517059,190.694794 
	C292.627930,190.450073 288.738770,190.205353 284.849640,189.960617 
	C288.270264,193.755829 293.890900,193.755142 296.517059,190.694794 
M296.317230,121.637802 
	C298.080566,121.131500 299.843933,120.625198 301.920654,120.028923 
	C299.659790,117.340492 294.882111,117.202705 293.915710,119.331833 
	C293.710876,119.783058 295.010712,120.917252 296.317230,121.637802 
M284.967804,105.183670 
	C284.955536,106.053642 284.943268,106.923607 284.931000,107.793579 
	C285.841583,107.715363 287.183594,107.986801 287.582855,107.494171 
	C288.842712,105.939713 289.749237,104.098877 290.813873,102.333389 
	C287.010651,99.990227 286.189667,102.362785 284.967804,105.183670 
M288.386780,177.101410 
	C290.691650,177.101410 292.996521,177.101410 295.301361,177.101410 
	C295.289185,176.802048 295.277008,176.502701 295.264801,176.203339 
	C287.379578,176.203339 279.494354,176.203339 271.609131,176.203339 
	C271.604034,176.502716 271.598938,176.802109 271.593811,177.101486 
	C276.868561,177.101486 282.143311,177.101486 288.386780,177.101410 
M203.516953,119.393982 
	C203.516953,119.393982 203.597778,119.523163 203.516953,119.393982 
z"/>
<path fill="#171617" opacity="1.000000" stroke="none" 
	d="
M287.004333,207.112808 
	C289.975952,207.087494 292.947540,207.043579 295.919189,207.040405 
	C304.061462,207.031693 304.061462,207.038498 304.308228,198.203613 
	C304.774597,192.052460 305.093872,186.636200 305.033356,181.224182 
	C305.001434,178.373276 304.306213,175.529785 303.910461,172.682938 
	C304.102478,165.793411 304.472931,158.902328 304.412323,152.015030 
	C304.381287,148.493240 302.757324,146.918961 298.556366,147.586517 
	C294.350372,148.254868 289.907318,147.431137 285.568176,147.261414 
	C285.432892,146.739578 285.297607,146.217743 285.162292,145.695908 
	C287.880829,142.089691 290.362854,138.267548 293.393951,134.946594 
	C295.753693,132.361191 306.987488,135.493301 308.477020,139.259308 
	C309.782928,142.561035 310.783661,146.237854 310.790466,149.751160 
	C310.810669,160.145874 310.101990,170.540115 310.005890,180.937546 
	C309.927917,189.379486 310.205536,197.831818 310.639099,206.263412 
	C310.701569,207.478729 312.363983,208.814407 313.566406,209.723373 
	C315.632660,211.285294 317.919830,212.554916 320.236450,214.024750 
	C322.044037,213.433990 324.195953,212.730667 326.845703,212.215118 
	C327.525696,212.642548 327.744415,212.842163 327.999725,213.001755 
	C327.999725,213.001755 328.000000,213.000000 328.070496,213.340088 
	C329.290100,215.303940 330.439178,216.927704 331.588257,218.551453 
	C331.922974,218.300369 332.257660,218.049286 332.592346,217.798218 
	C332.032227,216.197495 331.472107,214.596771 330.911987,212.996048 
	C328.039795,205.311615 325.189850,197.618713 322.269897,189.952469 
	C321.861542,188.880310 321.230347,187.839142 320.497437,186.953094 
	C314.805115,180.071259 314.670898,178.580536 319.756775,169.682938 
	C321.978088,172.127869 323.801666,174.586456 326.071564,176.521469 
	C329.044342,179.055603 327.774048,181.763367 327.809296,184.889862 
	C327.859375,189.332138 330.007568,193.791016 331.499847,198.160660 
	C332.309204,200.530624 333.616974,202.730362 334.699890,205.006882 
	C335.364685,204.745651 336.029480,204.484421 336.694244,204.223190 
	C336.356506,202.759888 336.170135,201.241058 335.657013,199.842087 
	C331.643433,188.899292 336.206024,177.748001 346.779358,172.849945 
	C347.519012,172.507309 348.342773,172.035950 349.095123,172.088333 
	C351.475891,172.254166 353.841309,172.640305 356.212677,172.941254 
	C355.690277,175.279343 355.611969,177.841782 354.564667,179.914673 
	C351.001862,186.966309 351.354065,188.540070 358.233124,190.653702 
	C359.846313,187.540237 361.581512,184.378769 363.140778,181.132767 
	C364.947693,177.371216 368.163849,176.896484 370.496857,180.379868 
	C374.097778,185.756256 373.746887,191.706726 372.312836,197.657455 
	C370.995880,203.122162 367.938965,207.239319 362.334045,208.806946 
	C355.303864,210.773193 354.500885,217.558884 351.371429,222.539780 
	C350.408783,224.071945 349.479706,225.705933 348.966064,227.422226 
	C347.975983,230.730911 346.318512,231.757492 343.880524,229.727493 
	C343.373230,231.978256 342.891296,234.116623 342.292755,236.772217 
	C345.833069,239.094177 351.449738,229.853195 354.698029,237.619736 
	C356.480652,241.881897 360.114655,246.438904 353.656830,251.618423 
	C362.744629,250.931427 363.151764,257.106171 364.865967,262.365753 
	C366.649170,267.837067 368.716003,273.222900 370.840637,278.573914 
	C372.872498,283.691193 372.045624,288.128601 368.193207,291.202026 
	C364.159180,294.420319 356.952576,294.140167 352.873413,292.345703 
	C347.965454,290.186584 348.166351,285.599792 346.475952,282.029114 
	C344.012360,276.825195 342.160217,271.287903 340.538116,265.749023 
	C339.791901,263.200928 340.211578,260.311768 340.099548,257.577362 
	C340.067352,256.791321 340.237610,255.916901 339.952789,255.234085 
	C337.895905,250.302765 335.746033,245.410233 333.558380,240.349945 
	C331.878845,244.218735 330.005554,248.533798 328.132263,252.848877 
	C328.453217,253.056915 328.774139,253.264969 329.095093,253.473022 
	C329.917908,252.794388 330.740723,252.115753 332.091217,251.279053 
	C333.412628,251.387390 334.206329,251.653793 335.000061,251.920197 
	C335.034119,253.521347 335.538239,255.298233 335.017273,256.691956 
	C333.188446,261.584625 330.273010,265.677948 330.545654,271.743683 
	C330.739960,276.066406 326.329498,280.642212 323.825806,285.020355 
	C322.608398,287.149231 321.051697,289.084106 319.174866,291.789703 
	C332.326019,296.521027 345.989227,293.148010 357.659058,298.531952 
	C357.626038,299.473877 357.593018,300.415802 357.559967,301.357727 
	C352.673889,302.145325 347.811615,303.377319 342.897400,303.640808 
	C325.128479,304.593445 307.341034,305.195618 289.562988,305.985229 
	C283.956787,306.234222 278.358246,306.656311 272.154785,306.622620 
	C259.411591,306.170227 247.269852,306.079102 235.127991,306.059235 
	C234.449036,306.058136 233.769135,306.645447 233.089661,306.958862 
	C228.714081,306.733826 224.338486,306.508820 219.260620,305.864441 
	C211.636826,305.654144 204.715317,305.863220 197.793793,306.072266 
	C182.786530,304.778870 167.771805,303.560974 152.783432,302.076721 
	C151.263092,301.926178 149.901596,300.171387 148.466400,299.161041 
	C149.955444,298.438751 151.376678,297.386749 152.947815,297.063629 
	C156.092697,296.416870 159.253143,296.744171 160.063492,292.040161 
	C160.315369,290.577972 164.436615,289.525726 166.934998,288.790863 
	C168.829163,288.233704 170.959000,288.477753 173.316406,288.346802 
	C171.967087,285.229919 171.099014,282.917938 169.987152,280.729797 
	C168.407501,277.621063 166.294998,275.668182 162.252350,275.896698 
	C155.618073,276.271667 148.946503,276.086700 142.292786,275.990326 
	C135.055786,275.885498 133.074402,273.877441 133.057159,266.748749 
	C133.022568,252.439514 133.256134,238.125534 132.937546,223.823334 
	C132.828705,218.937424 133.926056,215.395218 139.265320,213.171112 
	C151.357040,213.054443 162.686295,213.101044 174.037094,213.487640 
	C174.724411,215.283051 175.390182,216.738464 175.899811,217.852524 
	C174.194244,219.246399 172.603561,220.546371 170.549622,221.928177 
	C165.276901,222.024246 160.463898,221.929398 155.659058,222.085663 
	C151.479553,222.221573 147.309280,222.641190 142.865921,223.057938 
	C142.199875,237.080963 141.802826,250.981522 141.385590,265.589081 
	C145.520065,266.093048 149.081116,266.829712 152.655853,266.903564 
	C161.769318,267.091888 170.888901,266.984314 179.995148,267.408936 
	C180.912460,273.998505 178.853531,277.502960 171.574341,276.339020 
	C181.231186,277.456573 182.682465,275.819855 180.267639,267.418060 
	C180.223953,267.266052 180.088898,267.140350 180.160126,266.658386 
	C183.439499,259.756409 181.643723,253.286545 180.016815,246.364349 
	C180.093704,242.765717 180.294708,239.607895 180.120529,236.470886 
	C179.887741,232.278381 179.363876,228.102036 179.019592,223.709473 
	C178.729538,223.027710 178.384903,222.555222 178.144775,221.749390 
	C181.584747,219.506851 183.511749,216.885635 182.592163,212.825378 
	C191.384277,210.706116 191.584946,204.164612 191.072739,196.949371 
	C190.811127,193.264175 189.574005,188.639267 196.530579,187.203308 
	C196.679352,191.347992 196.899658,195.198776 196.938675,199.051361 
	C197.018600,206.945358 196.978943,206.924469 204.888733,207.070892 
	C206.370697,207.098312 207.848099,207.371887 209.463562,207.957703 
	C207.061722,209.608963 204.523926,210.834366 201.667419,212.230347 
	C200.144806,212.916718 198.986389,213.646545 197.729630,213.913696 
	C189.439819,215.675827 185.732742,220.350937 185.928619,228.854614 
	C186.008911,232.339798 185.956635,235.828156 185.955826,239.315079 
	C185.952927,251.921600 188.328842,252.959122 197.935638,256.444489 
	C193.922974,261.080627 192.110611,265.616119 194.648346,271.562958 
	C195.669983,273.957031 195.371689,277.210693 194.789673,279.880341 
	C194.446335,281.455292 192.370224,282.652466 191.051682,283.549316 
	C190.928528,275.283051 190.827072,267.486969 190.725601,259.690887 
	C190.004410,259.685272 189.283218,259.679657 188.562027,259.674042 
	C188.367706,261.365417 188.029800,263.054626 188.004272,264.748535 
	C187.901993,271.538574 188.045135,278.335052 187.818069,285.119781 
	C187.528915,293.758728 190.332367,296.872894 199.294006,297.249512 
	C200.766800,297.666992 201.913330,297.956299 203.060043,297.957062 
	C235.888016,297.978119 268.716034,297.981354 301.543915,297.929565 
	C302.975952,297.927307 304.407166,297.376648 306.124725,296.957153 
	C311.127441,296.072021 313.927032,293.043091 313.994232,288.148468 
	C314.110901,279.651825 314.063324,271.152313 314.001099,262.654572 
	C313.992462,261.472198 313.509369,260.293274 313.245880,259.112762 
	C312.626312,259.128479 312.006775,259.144165 311.387207,259.159851 
	C311.206329,265.784515 311.025452,272.409180 310.527527,278.891388 
	C309.151459,275.662201 306.423889,271.875183 307.366791,269.628662 
	C309.609039,264.286438 309.339905,260.094055 305.699585,255.696747 
	C305.714905,255.520248 305.731018,255.166275 306.112823,255.077057 
	C312.484131,254.017578 315.529388,250.148880 315.876953,244.438751 
	C316.249054,238.325165 316.224152,232.158218 315.899353,226.039688 
	C315.580566,220.034363 310.754791,214.983704 305.684448,213.997665 
	C303.068420,213.488907 300.611725,212.160690 297.913574,210.846649 
	C295.911926,209.993439 294.062317,209.551865 292.252594,208.983368 
	C290.481995,208.427170 288.752106,207.741592 287.004333,207.112808 
M347.234894,213.669403 
	C345.210754,216.138565 343.186584,218.607742 340.505066,221.878830 
	C340.881744,222.625916 341.830536,224.507538 343.245911,227.314590 
	C344.779388,224.113480 346.088226,222.134247 346.704895,219.958801 
	C348.929321,212.111542 353.139648,206.497299 361.091034,203.228943 
	C368.586060,200.148193 370.284180,193.747345 366.801086,186.021622 
	C364.301697,189.998291 361.890167,193.835175 359.209320,198.100540 
	C355.867004,196.483398 352.568542,194.543320 349.031281,193.262985 
	C344.591675,191.656021 344.424377,189.392456 346.727814,185.759598 
	C347.972382,183.796692 348.478577,181.365616 349.685608,178.173187 
	C342.583832,180.881439 337.318237,188.746872 339.388031,193.541519 
	C341.820312,199.175812 343.818390,204.445053 341.074646,210.646286 
	C342.384308,209.916824 342.987213,208.927200 343.862427,208.351883 
	C344.950378,207.636749 346.263397,207.264069 347.479248,206.743469 
	C347.686951,208.032120 348.005493,209.315994 348.061432,210.611221 
	C348.095886,211.408554 347.729340,212.223221 347.234894,213.669403 
M328.157379,232.179337 
	C327.387512,234.181732 326.591583,236.174576 325.852905,238.188416 
	C324.124451,242.900513 322.423523,247.622681 320.711456,252.340775 
	C321.233673,252.513092 321.755890,252.685410 322.278107,252.857742 
	C322.806488,251.527542 323.252838,250.157486 323.877136,248.873947 
	C326.880615,242.698669 329.108429,235.905548 333.239441,230.598999 
	C336.287384,226.683670 335.095825,224.780579 332.953033,221.622147 
	C331.393951,225.217850 329.985443,228.466370 328.157379,232.179337 
M355.660858,261.729340 
	C358.004211,268.435425 360.347565,275.141510 362.690918,281.847595 
	C363.504730,281.544006 364.318573,281.240387 365.132416,280.936798 
	C362.487122,273.238739 359.841797,265.540710 357.196472,257.842682 
	C356.594421,257.967316 355.992371,258.091919 355.390320,258.216553 
	C355.390320,259.188049 355.390320,260.159546 355.660858,261.729340 
M353.132385,275.260010 
	C351.411652,270.571075 349.690948,265.882141 347.807922,260.750977 
	C345.004028,265.791565 351.997620,283.705505 356.447601,283.739258 
	C355.412262,281.097168 354.409149,278.537292 353.132385,275.260010 
M325.605591,262.555267 
	C325.298065,262.604553 324.990570,262.653839 324.683044,262.703125 
	C324.997345,262.779205 325.311676,262.855316 325.605591,262.555267 
M341.489532,253.546005 
	C341.489532,253.546005 341.466705,253.493393 341.489532,253.546005 
M326.475830,253.495132 
	C326.475830,253.495132 326.524109,253.477188 326.475830,253.495132 
M335.521759,235.473831 
	C335.521759,235.473831 335.470337,235.494110 335.521759,235.473831 
z"/>
<path fill="#19191A" opacity="1.000000" stroke="none" 
	d="
M201.986130,212.059784 
	C204.523926,210.834366 207.061722,209.608963 209.825546,208.152618 
	C210.051575,207.921677 210.521149,207.938766 210.871094,208.045837 
	C211.221024,208.152893 211.638474,208.175964 211.638474,208.175964 
	C211.638474,208.175964 211.975311,207.909546 211.975311,207.909546 
	C216.037491,208.228973 217.736237,206.144775 217.528397,202.300156 
	C217.011948,192.746384 225.735962,186.687515 233.119675,186.947021 
	C245.967377,187.398544 258.841583,187.065704 271.704315,187.132263 
	C278.397644,187.166916 284.426392,193.228088 285.039490,200.177231 
	C285.234436,202.386627 285.879425,204.556320 286.661407,206.928497 
	C288.752106,207.741592 290.481995,208.427170 292.252594,208.983368 
	C294.062317,209.551865 295.911926,209.993439 297.671417,211.109680 
	C294.593353,212.464600 291.595215,213.800232 288.581299,213.836838 
	C271.678497,214.042236 254.771835,213.934341 237.660904,213.563110 
	C234.302872,213.126923 231.146561,212.930084 227.998795,213.022858 
	C221.762985,213.206650 215.531891,213.550385 208.912140,213.785614 
	C206.345657,213.182068 204.165894,212.620926 201.986130,212.059784 
M239.167236,199.003677 
	C238.173569,199.023773 237.172409,199.131516 236.187622,199.047501 
	C233.259140,198.797607 230.641403,199.201477 230.542953,202.833069 
	C230.436569,206.757812 233.191788,207.113297 236.316833,207.087051 
	C246.255966,207.003510 256.199829,207.185989 266.132446,206.917709 
	C267.716187,206.874939 270.119354,205.356659 270.623108,203.968643 
	C271.582001,201.326614 270.403412,199.071487 266.636139,198.208023 
	C259.904968,198.129593 253.173126,197.966919 246.443039,198.022018 
	C244.313538,198.039444 242.188812,198.638626 239.167236,199.003677 
z"/>
<path fill="#171717" opacity="1.000000" stroke="none" 
	d="
M232.018188,334.931274 
	C231.981201,331.121704 234.388260,330.485474 236.734085,331.218353 
	C238.367279,331.728607 240.610840,333.531891 240.748291,334.936920 
	C241.079437,338.321686 241.934174,339.957977 245.673599,340.229279 
	C249.958939,340.540192 248.973404,343.839233 248.692978,345.725464 
	C245.742798,347.354919 241.763290,348.334717 241.497070,349.932983 
	C240.757904,354.370758 241.415573,359.082733 241.936737,363.638885 
	C242.005661,364.241364 244.536453,364.462799 245.840332,365.052521 
	C247.052567,365.600861 249.097733,366.409088 249.095047,367.096252 
	C249.089737,368.446869 248.223480,370.132233 247.172791,371.079254 
	C243.575806,374.321259 239.208328,373.189117 236.095245,370.995575 
	C233.894897,369.445099 232.697098,365.780304 232.091599,362.844849 
	C231.434616,359.659882 232.040787,356.225464 231.992798,352.901306 
	C231.902893,346.673859 228.418213,344.397797 222.743469,346.796173 
	C212.981064,350.922180 212.980881,350.922150 212.969238,361.814880 
	C212.967819,363.145203 212.974487,364.475555 212.968979,365.805847 
	C212.945786,371.405609 209.569595,373.786804 204.314438,371.624176 
	C203.363037,371.232635 202.405792,369.451324 202.430527,368.333252 
	C202.541626,363.310516 203.042587,358.297607 203.318420,353.276489 
	C203.390717,351.960388 203.100708,350.628662 203.077988,349.302399 
	C202.925323,340.388977 203.709061,340.070923 212.559952,340.843842 
	C217.775726,341.299286 223.169174,340.575348 228.375092,339.723907 
	C229.784714,339.493347 230.802567,336.867462 232.018188,334.931274 
M225.533157,343.498169 
	C225.533157,343.498169 225.479416,343.521820 225.533157,343.498169 
z"/>
<path fill="#171717" opacity="1.000000" stroke="none" 
	d="
M130.029358,371.613770 
	C129.463409,369.397827 129.090134,367.336243 129.078979,365.272705 
	C129.019714,354.304504 129.187241,343.333191 128.981628,332.368530 
	C128.903824,328.219788 130.395920,326.720184 134.491608,326.962280 
	C138.963150,327.226562 143.462982,326.972931 147.949219,327.035919 
	C158.159286,327.179199 162.602356,332.599182 163.971802,340.698761 
	C165.259140,348.312683 160.251678,354.787109 151.944962,356.798157 
	C149.244904,357.451813 146.423004,357.886902 143.654388,357.899780 
	C140.259720,357.915619 138.667358,359.195526 138.960510,362.628937 
	C139.002762,363.123749 138.965912,363.625580 138.960526,364.124115 
	C138.871399,372.363098 138.855438,372.377167 130.029358,371.613770 
M151.937973,337.535767 
	C143.312881,332.362579 139.596878,333.969849 138.909760,343.170807 
	C138.374664,350.335999 138.374695,350.335999 147.126038,348.930176 
	C153.073334,347.974792 155.242844,343.595184 151.937973,337.535767 
z"/>
<path fill="#171617" opacity="1.000000" stroke="none" 
	d="
M193.003677,177.080246 
	C192.324936,175.399673 191.094711,173.730652 191.059189,172.036591 
	C190.864609,162.759659 190.980591,153.476532 190.953705,144.195633 
	C190.940033,139.473755 193.206757,136.451752 198.455612,134.913208 
	C214.083710,134.879272 228.881424,134.911789 243.678864,134.862152 
	C245.080231,134.857437 246.479874,134.337524 247.880310,134.056793 
	C250.895248,137.954529 253.910187,141.852280 256.925110,145.750015 
	C256.644470,146.350159 256.363831,146.950287 256.083160,147.550430 
	C245.283737,147.671982 234.484314,147.793533 222.984756,147.602234 
	C215.818253,147.193832 209.351242,147.009583 202.885895,147.055984 
	C200.904022,147.070206 198.926666,147.716583 196.947250,148.073471 
	C196.947250,148.073471 196.975281,147.964859 196.716827,147.916214 
	C196.346878,148.257263 196.235382,148.646973 196.088669,149.501862 
	C195.988434,158.648758 195.923401,167.330475 195.543274,176.028137 
	C194.486664,176.389481 193.745163,176.734863 193.003677,177.080246 
z"/>
<path fill="#181818" opacity="1.000000" stroke="none" 
	d="
M197.674530,363.498169 
	C193.897491,372.565216 180.380646,374.504761 173.882263,371.252380 
	C167.394913,368.005585 164.087738,360.873871 165.288483,353.775909 
	C167.138489,342.839966 172.544418,339.925323 180.091187,339.132751 
	C194.048706,337.666931 203.220612,350.220123 197.674530,363.498169 
M175.600067,359.558136 
	C177.779922,363.794312 182.209656,365.533722 185.686478,363.518829 
	C189.877533,361.090027 190.902420,354.917419 187.870300,350.366211 
	C185.342331,346.571716 181.458267,346.102386 177.540558,349.153168 
	C174.201904,351.753082 174.882339,355.296448 175.600067,359.558136 
z"/>
<path fill="#181818" opacity="1.000000" stroke="none" 
	d="
M354.159546,339.957001 
	C362.805420,337.835205 371.280029,340.294403 374.434235,346.289246 
	C377.892792,352.862579 379.249237,361.652832 371.654999,368.663025 
	C367.052612,372.911438 361.037964,373.796570 355.407135,372.241089 
	C349.687012,370.660919 344.266663,367.677704 343.335449,360.559967 
	C342.220123,352.034546 344.985352,342.394440 354.159546,339.957001 
M367.220612,357.801849 
	C367.901306,353.625549 366.552032,349.902069 362.790619,348.360443 
	C360.729095,347.515472 356.711090,348.055725 355.407745,349.559479 
	C353.547516,351.705780 352.083801,355.690186 352.824188,358.185120 
	C353.599060,360.796051 356.888916,363.754150 359.608368,364.429016 
	C363.353485,365.358429 365.728241,362.045227 367.220612,357.801849 
z"/>
<path fill="#181818" opacity="1.000000" stroke="none" 
	d="
M298.714905,339.971863 
	C311.367340,343.241425 312.916656,361.157532 304.192719,368.963043 
	C298.998535,373.610413 289.131622,373.907532 281.838898,369.540955 
	C277.166290,366.743195 275.078705,359.284882 275.988678,352.728058 
	C277.438751,342.279236 288.432983,336.876404 298.714905,339.971863 
M288.945526,348.252258 
	C287.988403,349.374023 286.688232,350.351349 286.142883,351.646515 
	C284.854706,354.705719 283.657379,358.077057 286.557434,360.837860 
	C288.212036,362.412964 290.454376,364.438385 292.410767,364.415771 
	C297.097412,364.361694 301.419617,359.000854 300.747589,355.149323 
	C299.890228,350.235748 294.613220,346.756165 288.945526,348.252258 
z"/>
<path fill="#171717" opacity="1.000000" stroke="none" 
	d="
M258.000366,364.873840 
	C257.996796,360.905029 258.009613,357.417053 257.986267,353.929321 
	C257.965698,350.856445 257.551208,348.291931 254.133759,346.664642 
	C250.777054,345.066254 251.022400,342.633087 253.827469,340.013367 
	C255.446762,338.501099 256.684357,336.254181 257.351105,334.107300 
	C259.615265,326.816803 267.242279,324.153748 274.318512,327.666779 
	C275.361755,328.184662 275.900696,330.901855 275.638733,332.423462 
	C275.480499,333.342865 273.331146,334.532501 272.071838,334.537903 
	C267.773163,334.556396 267.772400,334.376648 266.905273,337.669098 
	C269.715088,339.968628 273.909027,341.707489 274.301819,344.076569 
	C275.107849,348.938385 269.868530,347.448730 266.875549,348.488800 
	C266.875549,353.249237 267.020111,357.963806 266.818634,362.663544 
	C266.706665,365.275269 266.517670,368.118744 265.373383,370.350067 
	C264.817627,371.433746 260.903046,372.240997 260.396210,371.623779 
	C259.049835,369.984070 258.729462,367.501892 258.000366,364.873840 
z"/>
<path fill="#171717" opacity="1.000000" stroke="none" 
	d="
M262.906464,155.104721 
	C261.990997,153.165741 260.386719,151.255585 260.304138,149.281769 
	C260.134644,145.229843 258.125977,142.681320 255.459503,139.939163 
	C250.610321,134.952316 251.152679,120.233398 255.979050,114.343826 
	C260.883209,108.359283 272.705658,106.587997 279.823547,110.251266 
	C292.269440,116.656639 294.177673,130.146362 285.727112,140.275162 
	C283.942261,142.414459 282.646454,144.961761 280.716858,147.640808 
	C279.205902,147.325882 278.103424,146.691193 277.222900,145.780243 
	C279.145386,142.731461 280.802368,139.931061 282.554932,137.191833 
	C287.255646,129.844711 287.659332,123.654793 281.133728,117.004601 
	C274.891510,110.643166 263.208008,112.203835 259.336487,118.749947 
	C256.637878,123.312836 256.082153,130.576157 258.873260,135.202423 
	C261.536560,139.616837 264.049683,144.121841 267.094543,149.393265 
	C268.217224,149.510590 270.685120,149.768478 273.499329,150.022614 
	C274.538269,150.019257 275.230865,150.019669 275.950378,150.019302 
	C275.977295,150.018524 275.981262,150.071976 275.865845,150.394623 
	C273.528656,151.804474 271.306915,152.891678 268.724670,153.986328 
	C267.883209,153.989197 267.402313,153.984619 266.564331,153.989517 
	C265.107025,154.367569 264.006744,154.736145 262.906464,155.104721 
z"/>
<path fill="#171617" opacity="1.000000" stroke="none" 
	d="
M322.012329,338.382507 
	C322.012238,349.613342 322.012238,360.389862 322.012238,371.157288 
	C315.202332,373.009491 314.066254,372.271759 314.050964,365.862457 
	C314.023987,354.559906 313.970520,343.256348 314.119385,331.955719 
	C314.140045,330.388306 314.896393,327.882263 315.936768,327.496857 
	C317.535797,326.904449 320.226715,327.148804 321.425476,328.205414 
	C322.529938,329.178864 322.458588,331.680817 322.565796,333.529175 
	C322.649933,334.979919 322.216125,336.460724 322.012329,338.382507 
z"/>
<path fill="#171717" opacity="1.000000" stroke="none" 
	d="
M330.006653,341.050781 
	C336.697845,338.828949 338.035797,339.572540 338.286865,345.919281 
	C338.587952,353.530273 338.877014,361.146545 338.858063,368.759766 
	C338.855438,369.816193 337.218170,371.477234 336.058319,371.776642 
	C334.397552,372.205444 332.479553,371.638000 330.334412,370.819794 
	C330.000488,360.446014 330.003571,350.748413 330.006653,341.050781 
z"/>
<path fill="#171617" opacity="1.000000" stroke="none" 
	d="
M275.923492,150.020081 
	C275.230865,150.019669 274.538269,150.019257 273.468689,149.553345 
	C273.042389,146.262421 272.952087,143.437012 272.951752,140.611588 
	C272.950897,133.327698 272.081848,132.693436 264.560516,135.847916 
	C264.879028,133.225510 265.129333,131.164841 265.379639,129.104172 
	C267.462677,129.437836 269.545715,129.771500 272.438141,130.234818 
	C271.964325,130.646271 272.383698,130.366714 272.696320,129.996887 
	C274.711609,127.612679 276.967102,127.958000 278.482697,130.161240 
	C278.915771,130.790756 277.208557,132.897156 276.475159,134.322449 
	C276.124268,135.004395 275.381073,135.723404 275.457855,136.346466 
	C275.858582,139.597153 276.465637,142.822403 277.000916,146.056503 
	C278.103424,146.691193 279.205902,147.325882 280.641968,147.981476 
	C280.647400,151.485062 280.319275,154.967728 279.608154,158.817627 
	C278.773315,159.477890 278.321472,159.770889 277.709198,160.204224 
	C277.342651,160.543900 277.159302,160.762375 276.813904,161.147476 
	C276.392944,161.506210 276.183258,161.741013 275.600098,161.999527 
	C274.133881,162.000580 273.067535,162.001511 271.662781,161.791473 
	C268.555023,161.387375 265.785675,161.194229 263.016327,161.001083 
	C262.961548,159.253845 262.906799,157.506607 262.879242,155.432037 
	C264.006744,154.736145 265.107025,154.367569 266.646729,154.240433 
	C267.752533,154.314209 268.418854,154.146561 269.085205,153.978897 
	C271.306915,152.891678 273.528656,151.804474 275.926361,150.347809 
	C276.102325,149.978348 276.099365,149.798187 276.099365,149.798187 
	C276.099365,149.798187 275.923492,150.020065 275.923492,150.020081 
M271.525940,159.500061 
	C271.525940,159.500061 271.486572,159.514374 271.525940,159.500061 
z"/>
<path fill="#171617" opacity="1.000000" stroke="none" 
	d="
M157.972717,198.980072 
	C158.283005,196.085434 158.293549,193.119583 158.961014,190.309784 
	C160.803406,182.554184 162.810486,174.831833 165.036255,167.178894 
	C165.410019,165.893753 167.200089,165.020508 168.335739,163.956955 
	C169.215408,165.503601 171.082153,167.254364 170.811523,168.563171 
	C169.270554,176.015884 167.238708,183.368088 165.331726,190.743591 
	C164.680496,193.262268 163.835449,195.731522 163.208008,198.255432 
	C162.364258,201.649490 160.636612,201.139740 158.275482,199.219650 
	C157.997391,198.999359 157.972717,198.980072 157.972717,198.980072 
z"/>
<path fill="#171717" opacity="1.000000" stroke="none" 
	d="
M176.994675,177.999298 
	C173.605942,176.275436 172.561691,174.106857 174.634903,170.708740 
	C180.208557,173.485474 185.874817,176.103485 191.333176,179.100189 
	C194.925888,181.072632 194.852341,184.045959 191.511276,186.061020 
	C186.553497,189.051147 181.310684,191.595825 176.051956,194.034164 
	C175.128052,194.462555 173.531677,193.440643 172.245865,193.088531 
	C172.632019,191.756393 172.660919,190.104065 173.495056,189.173462 
	C174.530228,188.018570 176.212158,187.424225 177.650284,186.654129 
	C179.769470,185.519348 181.920059,184.443176 184.768188,182.975754 
	C181.663849,181.012100 179.464462,179.620880 176.994675,177.999298 
z"/>
<path fill="#171617" opacity="1.000000" stroke="none" 
	d="
M151.014969,172.315582 
	C152.476974,172.019669 153.637680,171.887009 154.988388,171.732620 
	C154.865845,179.055679 148.537323,179.601898 144.744766,183.006378 
	C147.975845,186.272995 155.408936,185.803818 154.004532,194.492737 
	C149.551727,192.502716 145.151260,191.070175 141.317215,188.715424 
	C132.341095,183.202576 132.469559,182.456924 141.773300,177.294281 
	C144.732834,175.652039 147.732407,174.081924 151.014969,172.315582 
z"/>
<path fill="#171717" opacity="1.000000" stroke="none" 
	d="
M276.000000,161.999390 
	C276.183258,161.741013 276.392944,161.506210 276.981720,161.012146 
	C277.548645,160.536331 277.727020,160.314499 277.869598,160.063873 
	C278.321472,159.770889 278.773315,159.477890 279.478912,159.112305 
	C281.242401,164.114059 278.303497,167.442581 274.739624,169.925842 
	C270.853149,172.633865 267.341248,169.409851 264.254944,167.591949 
	C263.019836,166.864456 263.202972,163.729126 262.878448,161.345444 
	C265.785675,161.194229 268.555023,161.387375 271.598511,162.122467 
	C271.740814,163.841675 271.609009,165.018936 271.311951,167.672318 
	C273.920288,165.376160 277.489014,166.058472 276.000000,161.999390 
z"/>
<path fill="#0B0B0B" opacity="1.000000" stroke="none" 
	d="
M242.705872,180.206390 
	C237.050156,180.130753 231.829178,180.130753 226.608215,180.130753 
	C226.594055,179.182785 226.579895,178.234802 226.565750,177.286835 
	C237.960663,176.706863 249.382309,177.094269 261.605713,177.050491 
	C257.806641,180.260498 249.293549,181.493729 242.705872,180.206390 
z"/>
<path fill="#19191A" opacity="1.000000" stroke="none" 
	d="
M335.857727,154.936325 
	C334.294617,157.836884 332.447784,160.531937 330.462524,163.429001 
	C327.261230,160.511978 325.079559,158.524063 323.173676,156.787445 
	C325.246338,154.286163 327.272278,151.841248 328.976868,149.784149 
	C331.527466,151.696625 333.550720,153.213730 335.857727,154.936325 
z"/>
<path fill="#0B0B0B" opacity="1.000000" stroke="none" 
	d="
M241.496368,172.821136 
	C238.599426,172.764969 236.150528,172.822449 233.703430,172.778320 
	C231.405685,172.736893 229.109894,172.588135 226.813232,172.486603 
	C226.842255,171.746353 226.871292,171.006088 226.900314,170.265839 
	C237.752014,170.265839 248.603714,170.265839 259.455414,170.265839 
	C259.483276,170.853195 259.511169,171.440536 259.539032,172.027893 
	C253.841110,174.016495 247.813126,172.636673 241.496368,172.821136 
z"/>
<path fill="#171717" opacity="1.000000" stroke="none" 
	d="
M338.836365,332.814026 
	C336.561432,336.987793 333.163361,336.782379 330.351868,334.708313 
	C329.185547,333.847870 328.768524,330.285187 329.594269,328.885834 
	C330.418152,327.489655 333.826782,326.143463 335.019196,326.785797 
	C336.810333,327.750641 337.657227,330.468353 338.836365,332.814026 
z"/>
<path fill="#171617" opacity="1.000000" stroke="none" 
	d="
M206.200592,118.059219 
	C210.518143,114.027008 213.584702,116.211296 216.644272,119.200912 
	C214.386169,121.632088 212.349365,123.825005 209.872375,126.491844 
	C208.535477,123.699966 207.232346,120.978584 206.200592,118.059219 
z"/>
<path fill="#0B0B0B" opacity="1.000000" stroke="none" 
	d="
M182.340759,212.860947 
	C183.511749,216.885635 181.584747,219.506851 178.111694,221.761047 
	C177.974121,222.106033 177.930191,222.051346 177.497498,222.051239 
	C175.047485,221.982880 173.030197,221.914597 171.012894,221.846329 
	C172.603561,220.546371 174.194244,219.246399 175.899811,217.852524 
	C175.390182,216.738464 174.724411,215.283051 174.475861,213.442352 
	C176.954193,213.044037 179.015289,213.031021 181.076401,213.018005 
	C181.414062,212.977509 181.751709,212.937012 182.340759,212.860947 
z"/>
<path fill="#171617" opacity="1.000000" stroke="none" 
	d="
M176.704773,158.478165 
	C173.824341,162.417526 170.878876,160.606506 168.611877,158.540482 
	C167.933502,157.922226 168.708115,154.845322 169.688309,153.558472 
	C170.408997,152.612274 173.348785,151.978149 173.899246,152.550903 
	C175.291275,153.999283 175.893616,156.206604 176.704773,158.478165 
z"/>
<path fill="#0B0B0B" opacity="1.000000" stroke="none" 
	d="
M211.735016,166.068726 
	C211.228531,166.879990 210.403885,167.939713 210.098877,167.806824 
	C208.438553,167.083420 206.728149,166.267548 205.389023,165.083191 
	C204.401688,164.209991 203.433746,162.716019 203.451263,161.513092 
	C203.463196,160.691681 205.068069,159.558731 206.174362,159.164413 
	C207.945724,158.533051 209.894287,158.398819 210.909012,158.212311 
	C211.195236,161.104187 211.425980,163.435440 211.735016,166.068726 
z"/>
<path fill="#19191A" opacity="1.000000" stroke="none" 
	d="
M222.508820,159.693008 
	C220.140961,163.782562 217.962921,167.578033 215.076660,172.607697 
	C214.238144,170.423874 213.230331,169.034500 213.570969,168.492310 
	C216.499008,163.831726 219.670639,159.324203 222.769547,154.770981 
	C223.370544,155.167206 223.971527,155.563446 224.572525,155.959671 
	C223.947891,157.106094 223.323273,158.252518 222.508820,159.693008 
z"/>
<path fill="#898989" opacity="1.000000" stroke="none" 
	d="
M247.419449,134.057953 
	C246.479874,134.337524 245.080231,134.857437 243.678864,134.862152 
	C228.881424,134.911789 214.083710,134.879272 198.843842,134.870316 
	C200.140381,134.598236 201.878159,134.095886 203.618057,134.088486 
	C218.064682,134.026962 232.511688,134.056839 247.419449,134.057953 
z"/>
<path fill="#0B0B0B" opacity="1.000000" stroke="none" 
	d="
M292.618774,170.014999 
	C294.177917,170.314819 295.308533,170.611069 297.057495,171.069321 
	C292.250000,173.891449 285.948029,173.619873 282.215302,170.011414 
	C286.168335,170.011414 289.179291,170.011414 292.618774,170.014999 
z"/>
<path fill="#898989" opacity="1.000000" stroke="none" 
	d="
M180.885193,212.617096 
	C179.015289,213.031021 176.954193,213.044037 174.454315,213.102356 
	C162.686295,213.101044 151.357040,213.054443 139.566101,212.991028 
	C139.747131,212.638535 140.390396,212.009216 141.032455,212.010468 
	C154.253052,212.035919 167.473495,212.133179 180.885193,212.617096 
z"/>
<path fill="#0B0B0B" opacity="1.000000" stroke="none" 
	d="
M296.692810,190.956512 
	C293.890900,193.755142 288.270264,193.755829 284.849640,189.960617 
	C288.738770,190.205353 292.627930,190.450073 296.692810,190.956512 
z"/>
<path fill="#AAAAAA" opacity="1.000000" stroke="none" 
	d="
M233.552460,306.972198 
	C233.769135,306.645447 234.449036,306.058136 235.127991,306.059235 
	C247.269852,306.079102 259.411591,306.170227 271.768799,306.619751 
	C259.327911,306.990814 246.671585,306.988190 233.552460,306.972198 
z"/>
<path fill="#171617" opacity="1.000000" stroke="none" 
	d="
M295.967285,121.687286 
	C295.010712,120.917252 293.710876,119.783058 293.915710,119.331833 
	C294.882111,117.202705 299.659790,117.340492 301.920654,120.028923 
	C299.843933,120.625198 298.080566,121.131500 295.967285,121.687286 
z"/>
<path fill="#19191A" opacity="1.000000" stroke="none" 
	d="
M285.125610,104.878906 
	C286.189667,102.362785 287.010651,99.990227 290.813873,102.333389 
	C289.749237,104.098877 288.842712,105.939713 287.582855,107.494171 
	C287.183594,107.986801 285.841583,107.715363 284.931000,107.793579 
	C284.943268,106.923607 284.955536,106.053642 285.125610,104.878906 
z"/>
<path fill="#1E1E1E" opacity="1.000000" stroke="none" 
	d="
M329.759369,341.379272 
	C330.003571,350.748413 330.000488,360.446014 329.987610,370.622559 
	C329.641479,367.385864 329.048096,363.671783 329.027130,359.954407 
	C328.992798,353.873322 329.331024,347.790100 329.759369,341.379272 
z"/>
<path fill="#AAAAAA" opacity="1.000000" stroke="none" 
	d="
M195.858383,176.012177 
	C195.923401,167.330475 195.988434,158.648758 196.282074,149.478088 
	C196.510712,148.989136 196.898712,149.026169 196.898712,149.026169 
	C196.852554,158.578094 196.806396,168.130035 196.372253,177.515350 
	C195.942307,176.903214 195.900345,176.457687 195.858383,176.012177 
z"/>
<path fill="#898989" opacity="1.000000" stroke="none" 
	d="
M197.419800,148.058228 
	C198.926666,147.716583 200.904022,147.070206 202.885895,147.055984 
	C209.351242,147.009583 215.818253,147.193832 222.551544,147.600067 
	C214.509766,147.954849 206.201050,147.998917 197.419800,148.058228 
z"/>
<path fill="#AAAAAA" opacity="1.000000" stroke="none" 
	d="
M287.902405,177.101440 
	C282.143311,177.101486 276.868561,177.101486 271.593811,177.101486 
	C271.598938,176.802109 271.604034,176.502716 271.609131,176.203339 
	C279.494354,176.203339 287.379578,176.203339 295.264801,176.203339 
	C295.277008,176.502701 295.289185,176.802048 295.301361,177.101410 
	C292.996521,177.101410 290.691650,177.101410 287.902405,177.101440 
z"/>
<path fill="#454346" opacity="1.000000" stroke="none" 
	d="
M303.891388,173.178589 
	C304.306213,175.529785 305.001434,178.373276 305.033356,181.224182 
	C305.093872,186.636200 304.774597,192.052460 304.296875,197.755524 
	C303.944580,189.920807 303.908447,181.797531 303.891388,173.178589 
z"/>
<path fill="#171617" opacity="1.000000" stroke="none" 
	d="
M256.014618,106.982635 
	C251.346191,107.449677 252.666107,104.275032 252.500046,102.004059 
	C252.985077,101.740532 253.470123,101.477013 253.955170,101.213486 
	C254.706604,102.950890 255.458054,104.688286 256.104614,106.712708 
	C255.999756,106.999718 256.014618,106.982635 256.014618,106.982635 
z"/>
<path fill="#454346" opacity="1.000000" stroke="none" 
	d="
M198.279434,306.088745 
	C204.715317,305.863220 211.636826,305.654144 218.869690,305.754517 
	C212.375717,306.077759 205.570404,306.091492 198.279434,306.088745 
z"/>
<path fill="#010101" opacity="1.000000" stroke="none" 
	d="
M330.548584,212.997009 
	C331.472107,214.596771 332.032227,216.197495 332.592346,217.798218 
	C332.257660,218.049286 331.922974,218.300369 331.588257,218.551453 
	C330.439178,216.927704 329.290100,215.303940 328.069275,213.340698 
	C328.726776,213.000122 329.455994,212.999039 330.548584,212.997009 
z"/>
<path fill="#010101" opacity="1.000000" stroke="none" 
	d="
M334.966278,251.605774 
	C334.206329,251.653793 333.412628,251.387390 332.308899,251.065399 
	C333.216553,248.604767 334.177185,248.878143 334.966278,251.605774 
z"/>
<path fill="#0B0B0B" opacity="1.000000" stroke="none" 
	d="
M195.543274,176.028137 
	C195.900345,176.457687 195.942307,176.903214 195.962631,177.685333 
	C195.132431,177.829071 194.323868,177.636200 193.259491,177.261780 
	C193.745163,176.734863 194.486664,176.389481 195.543274,176.028137 
z"/>
<path fill="#171617" opacity="1.000000" stroke="none" 
	d="
M255.991211,107.007111 
	C256.430511,107.357368 256.878357,107.700233 257.326202,108.043106 
	C257.222260,108.151749 257.118317,108.260391 257.014374,108.369026 
	C256.720795,108.066292 256.427216,107.763557 256.074127,107.221725 
	C256.014618,106.982635 255.999756,106.999718 255.991211,107.007111 
z"/>
<path fill="#171617" opacity="1.000000" stroke="none" 
	d="
M203.557373,119.458572 
	C203.597778,119.523163 203.516953,119.393982 203.557373,119.458572 
z"/>
<path fill="#898989" opacity="1.000000" stroke="none" 
	d="
M196.971024,148.772217 
	C196.898712,149.026169 196.510712,148.989136 196.317291,149.012909 
	C196.235382,148.646973 196.346878,148.257263 196.771271,147.929657 
	C197.070557,148.167252 197.056946,148.342758 196.971024,148.772217 
z"/>
<path fill="#171617" opacity="1.000000" stroke="none" 
	d="
M158.007172,199.011292 
	C158.016937,199.023224 157.834717,199.254486 157.834717,199.254486 
	C157.834717,199.254486 157.833771,199.053101 157.903244,199.016586 
	C157.972717,198.980072 157.997391,198.999359 158.007172,199.011292 
z"/>
<path fill="#171617" opacity="1.000000" stroke="none" 
	d="
M211.729065,207.925735 
	C211.975311,207.909546 211.638474,208.175964 211.638474,208.175964 
	C211.638474,208.175964 211.221024,208.152893 211.105515,208.061447 
	C210.990005,207.970001 211.482803,207.941925 211.729065,207.925735 
z"/>
<path fill="#010101" opacity="1.000000" stroke="none" 
	d="
M327.867920,212.824097 
	C327.744415,212.842163 327.525696,212.642548 327.228699,212.213928 
	C327.341156,212.212234 327.548584,212.419403 327.867920,212.824097 
z"/>
<path fill="#1C1C1C" opacity="1.000000" stroke="none" 
	d="
M305.684235,255.873245 
	C309.339905,260.094055 309.609039,264.286438 307.366791,269.628662 
	C306.423889,271.875183 309.151459,275.662201 310.557251,279.335968 
	C310.906311,282.088501 311.688080,284.711731 310.743134,286.321106 
	C308.954193,289.367889 306.642090,293.147919 303.685120,294.199951 
	C300.144226,295.459778 295.701935,294.161469 291.648529,294.011017 
	C285.612000,293.786987 279.574890,293.469574 273.536652,293.435699 
	C268.891266,293.409607 264.241119,293.959686 259.597717,293.898590 
	C250.607513,293.780365 241.619659,293.176147 232.632507,293.210358 
	C222.650757,293.248352 212.672531,293.853821 202.689636,294.062134 
	C194.809967,294.226501 191.766907,291.489960 191.073380,284.019531 
	C192.370224,282.652466 194.446335,281.455292 194.789673,279.880341 
	C195.371689,277.210693 195.669983,273.957031 194.648346,271.562958 
	C192.110611,265.616119 193.922974,261.080627 198.270584,256.409973 
	C199.144867,256.027618 199.593506,256.009155 200.490173,255.998322 
	C203.629257,256.066559 206.320328,256.127197 209.200806,256.509399 
	C213.354340,258.424896 217.280136,259.314545 221.439896,256.137817 
	C225.536270,255.749466 229.180801,255.423126 233.031036,254.918732 
	C233.477478,254.260483 233.718201,253.780289 234.124466,253.000549 
	C232.879868,252.472137 231.470352,252.049606 230.059540,252.045242 
	C219.472519,252.012466 208.885239,252.062149 197.990509,251.971588 
	C192.029373,250.677689 189.514313,247.936417 189.561005,242.569016 
	C189.599976,238.090225 189.836578,233.606995 190.158478,229.138168 
	C190.707993,221.509628 192.274750,220.698013 199.933487,221.372147 
	C205.267288,221.841644 210.711029,221.062225 216.538162,220.860535 
	C219.282486,220.873154 221.594299,220.865936 224.240997,221.092712 
	C227.748611,221.169785 230.921341,221.012894 234.550156,220.833267 
	C238.976227,220.827484 242.946228,220.844421 247.150589,221.056808 
	C248.284317,221.121704 249.183670,220.991150 250.485413,220.827271 
	C252.230392,220.815994 253.572968,220.838028 255.150253,221.056122 
	C256.285370,221.119766 257.185791,220.987350 258.435303,220.812439 
	C259.485748,220.793167 260.187103,220.816406 261.208038,221.072891 
	C264.053986,221.150528 266.580353,220.994919 269.568176,220.856903 
	C275.995056,220.865936 281.960449,220.857361 288.061035,220.936829 
	C288.196259,221.024857 288.652222,221.074265 288.652222,221.074265 
	C288.652222,221.074265 289.072266,220.849655 289.533020,220.826553 
	C294.625946,220.816147 299.258118,220.828842 304.116852,221.041931 
	C304.904175,221.449615 305.464874,221.656921 306.234192,222.005249 
	C307.289948,222.112442 308.137085,222.078644 309.342590,222.094009 
	C310.633240,223.422424 312.311981,224.672653 312.363068,225.986221 
	C312.542877,230.608002 311.712769,235.288757 312.091736,239.878952 
	C312.843597,248.985535 308.572662,250.985397 301.720825,252.604813 
	C293.015808,252.171051 284.530731,252.051056 276.046204,252.081802 
	C274.368958,252.087875 272.693848,252.673630 270.765259,253.038437 
	C270.341644,253.080933 270.170563,253.077026 269.815704,252.799683 
	C268.492218,252.558502 267.352509,252.590744 266.212799,252.622986 
	C266.807251,253.416183 267.401672,254.209381 268.277863,255.013931 
	C268.747101,255.038361 268.934631,255.051468 269.353821,255.415268 
	C281.618408,255.801712 293.651306,255.837479 305.684235,255.873245 
M263.613190,250.837677 
	C263.428680,250.218750 263.244171,249.599808 262.396973,248.576538 
	C255.722290,248.134399 249.049622,247.541931 242.370193,247.451599 
	C241.587006,247.440994 240.182297,250.154770 240.074356,251.677078 
	C239.769836,255.971375 240.126831,260.308105 239.962875,264.618195 
	C239.823181,268.290253 241.831726,269.802429 245.014221,269.949310 
	C249.155762,270.140411 253.344055,270.284149 257.455597,269.876740 
	C261.287262,269.497131 263.822327,267.589508 263.349548,262.951691 
	C262.947540,259.008453 263.213379,254.997147 263.613190,250.837677 
M237.033890,290.506744 
	C242.690292,289.396973 249.397415,292.537384 253.819519,286.149139 
	C254.446304,285.243683 256.537201,285.212036 257.981842,285.040680 
	C261.271423,284.650452 264.593964,284.079590 267.878754,284.207642 
	C273.817871,284.439209 280.295807,281.871674 285.411072,287.128632 
	C289.138428,284.665039 292.871613,282.209869 296.536194,279.656189 
	C296.590302,279.618469 295.635468,278.400055 295.418427,277.654907 
	C294.823395,275.611786 293.709656,273.419586 294.024170,271.485291 
	C294.447479,268.881805 296.015594,266.464478 297.603546,262.781738 
	C290.661621,264.355225 284.407227,265.754974 278.162537,267.196777 
	C275.561646,267.797333 272.981384,268.487457 269.976776,269.240875 
	C267.125061,271.910034 263.320526,274.933411 260.202026,278.548584 
	C257.364746,281.837830 254.287506,282.660553 250.463196,281.313843 
	C246.741287,280.003204 243.067764,278.541290 239.428787,277.012970 
	C235.825821,275.499817 232.309113,273.782593 228.723541,272.226349 
	C225.754196,270.937592 222.752045,269.721283 219.738388,268.539307 
	C218.683365,268.125519 217.524063,267.982147 216.458145,267.590668 
	C211.863754,265.903351 207.340515,263.990204 202.664581,262.579651 
	C201.499130,262.228058 198.670258,263.389191 198.644470,263.948914 
	C198.528458,266.466827 199.051239,269.042694 199.676453,271.513428 
	C199.727661,271.715820 202.277206,271.206726 203.669479,271.171936 
	C204.995392,271.138733 206.820038,270.795929 207.525650,271.496063 
	C208.350159,272.314148 208.753250,274.346924 208.303268,275.417145 
	C207.922577,276.322601 206.110184,276.803040 204.844437,277.096405 
	C204.018356,277.287872 203.036819,276.808685 202.122345,276.629395 
	C201.061340,282.276398 203.496521,287.537750 207.243912,287.945465 
	C216.885162,288.994324 226.382492,291.837341 237.033890,290.506744 
M237.499969,292.473999 
	C237.499969,292.473999 237.514236,292.512878 237.499969,292.473999 
z"/>
<path fill="#010101" opacity="1.000000" stroke="none" 
	d="
M269.106689,220.839325 
	C266.580353,220.994919 264.053986,221.150528 260.937012,220.758591 
	C253.257614,220.153519 246.166931,219.967697 239.080566,220.073196 
	C231.420151,220.187225 223.763779,220.573303 216.105652,220.840729 
	C210.711029,221.062225 205.267288,221.841644 199.933487,221.372147 
	C192.274750,220.698013 190.707993,221.509628 190.158478,229.138168 
	C189.836578,233.606995 189.599976,238.090225 189.561005,242.569016 
	C189.514313,247.936417 192.029373,250.677689 198.221741,252.307312 
	C210.493317,252.938354 222.226120,253.119217 233.958939,253.300079 
	C233.718201,253.780289 233.477478,254.260483 232.575012,254.880630 
	C222.446671,255.001785 212.979828,254.947601 203.513763,255.009811 
	C202.354462,255.017426 201.199265,255.648544 200.042160,255.990723 
	C199.593506,256.009155 199.144867,256.027618 198.361267,256.080566 
	C188.328842,252.959122 185.952927,251.921600 185.955826,239.315079 
	C185.956635,235.828156 186.008911,232.339798 185.928619,228.854614 
	C185.732742,220.350937 189.439819,215.675827 197.729630,213.913696 
	C198.986389,213.646545 200.144806,212.916718 201.667419,212.230347 
	C204.165894,212.620926 206.345657,213.182068 209.360275,213.826385 
	C219.418915,213.917511 228.642700,213.925461 237.866486,213.933411 
	C254.771835,213.934341 271.678497,214.042236 288.581299,213.836838 
	C291.595215,213.800232 294.593353,212.464600 297.840881,211.465759 
	C300.611725,212.160690 303.068420,213.488907 305.684448,213.997665 
	C310.754791,214.983704 315.580566,220.034363 315.899353,226.039688 
	C316.224152,232.158218 316.249054,238.325165 315.876953,244.438751 
	C315.529388,250.148880 312.484131,254.017578 305.665161,255.016235 
	C292.931183,255.051270 281.026672,255.057938 269.122192,255.064590 
	C268.934631,255.051468 268.747101,255.038361 268.362061,254.723175 
	C268.776184,253.971756 269.387817,253.522446 269.999481,253.073120 
	C270.170563,253.077026 270.341644,253.080933 271.232727,253.044647 
	C281.948822,252.993454 291.944916,252.982452 301.941010,252.971436 
	C308.572662,250.985397 312.843597,248.985535 312.091736,239.878952 
	C311.712769,235.288757 312.542877,230.608002 312.363068,225.986221 
	C312.311981,224.672653 310.633240,223.422424 309.136719,221.899780 
	C307.723572,221.725677 306.874573,221.794968 306.025604,221.864243 
	C305.464874,221.656921 304.904175,221.449615 303.849518,220.724136 
	C293.319519,220.173325 283.283356,220.112244 273.247467,220.141144 
	C271.866547,220.145126 270.486908,220.595566 269.106689,220.839325 
z"/>
<path fill="#010101" opacity="1.000000" stroke="none" 
	d="
M191.051682,283.549316 
	C191.766907,291.489960 194.809967,294.226501 202.689636,294.062134 
	C212.672531,293.853821 222.650757,293.248352 232.632507,293.210358 
	C241.619659,293.176147 250.607513,293.780365 259.597717,293.898590 
	C264.241119,293.959686 268.891266,293.409607 273.536652,293.435699 
	C279.574890,293.469574 285.612000,293.786987 291.648529,294.011017 
	C295.701935,294.161469 300.144226,295.459778 303.685120,294.199951 
	C306.642090,293.147919 308.954193,289.367889 310.743134,286.321106 
	C311.688080,284.711731 310.906311,282.088501 310.874359,279.478424 
	C311.025452,272.409180 311.206329,265.784515 311.387207,259.159851 
	C312.006775,259.144165 312.626312,259.128479 313.245880,259.112762 
	C313.509369,260.293274 313.992462,261.472198 314.001099,262.654572 
	C314.063324,271.152313 314.110901,279.651825 313.994232,288.148468 
	C313.927032,293.043091 311.127441,296.072021 305.670227,296.937683 
	C269.609070,297.023987 234.288452,297.005432 198.967819,296.986877 
	C190.332367,296.872894 187.528915,293.758728 187.818069,285.119781 
	C188.045135,278.335052 187.901993,271.538574 188.004272,264.748535 
	C188.029800,263.054626 188.367706,261.365417 188.562027,259.674042 
	C189.283218,259.679657 190.004410,259.685272 190.725601,259.690887 
	C190.827072,267.486969 190.928528,275.283051 191.051682,283.549316 
z"/>
<path fill="#010101" opacity="1.000000" stroke="none" 
	d="
M178.007202,222.094391 
	C178.384903,222.555222 178.729538,223.027710 178.977768,224.125153 
	C178.587219,226.821030 178.293060,228.891983 177.996399,230.987610 
	C177.993912,231.012299 178.042999,231.000320 177.694138,230.775024 
	C167.655334,230.686600 157.965393,230.823486 147.925873,230.960648 
	C147.110184,230.961884 146.644089,230.962845 146.120514,230.579803 
	C146.162476,228.867691 146.261887,227.539536 146.361298,226.211395 
	C145.454376,226.563217 145.079651,226.961792 145.078125,227.361801 
	C145.037003,238.112534 145.020752,248.863464 145.067230,259.614075 
	C145.069397,260.116638 145.689102,260.616486 146.011108,261.472412 
	C146.050690,262.297821 146.100403,262.768433 146.454956,263.512756 
	C154.150620,263.852203 161.542191,264.005615 168.931854,263.940918 
	C171.927307,263.914703 174.918610,263.412933 178.082962,262.743591 
	C178.167953,257.260651 178.081787,252.161758 178.329529,247.067215 
	C179.100250,246.985870 179.537064,246.900146 179.973877,246.814423 
	C181.643723,253.286545 183.439499,259.756409 180.161957,266.657104 
	C180.000107,266.999817 180.006027,266.995117 180.006027,266.995117 
	C170.888901,266.984314 161.769318,267.091888 152.655853,266.903564 
	C149.081116,266.829712 145.520065,266.093048 141.385590,265.589081 
	C141.802826,250.981522 142.199875,237.080963 143.325745,223.073395 
	C153.838150,222.967255 163.622025,223.007126 173.404938,222.927979 
	C174.915619,222.915771 176.421890,222.357224 177.930191,222.051346 
	C177.930191,222.051346 177.974121,222.106033 178.007202,222.094391 
z"/>
<path fill="#000000" opacity="1.000000" stroke="none" 
	d="
M347.388855,213.349747 
	C347.729340,212.223221 348.095886,211.408554 348.061432,210.611221 
	C348.005493,209.315994 347.686951,208.032120 347.479248,206.743469 
	C346.263397,207.264069 344.950378,207.636749 343.862427,208.351883 
	C342.987213,208.927200 342.384308,209.916824 341.074646,210.646286 
	C343.818390,204.445053 341.820312,199.175812 339.388031,193.541519 
	C337.318237,188.746872 342.583832,180.881439 349.685608,178.173187 
	C348.478577,181.365616 347.972382,183.796692 346.727814,185.759598 
	C344.424377,189.392456 344.591675,191.656021 349.031281,193.262985 
	C352.568542,194.543320 355.867004,196.483398 359.209320,198.100540 
	C361.890167,193.835175 364.301697,189.998291 366.801086,186.021622 
	C370.284180,193.747345 368.586060,200.148193 361.091034,203.228943 
	C353.139648,206.497299 348.929321,212.111542 346.704895,219.958801 
	C346.088226,222.134247 344.779388,224.113480 343.245911,227.314590 
	C341.830536,224.507538 340.881744,222.625916 340.505066,221.878830 
	C343.186584,218.607742 345.210754,216.138565 347.388855,213.349747 
z"/>
<path fill="#454346" opacity="1.000000" stroke="none" 
	d="
M199.294006,297.249512 
	C234.288452,297.005432 269.609070,297.023987 305.384216,297.061951 
	C304.407166,297.376648 302.975952,297.927307 301.543915,297.929565 
	C268.716034,297.981354 235.888016,297.978119 203.060043,297.957062 
	C201.913330,297.956299 200.766800,297.666992 199.294006,297.249512 
z"/>
<path fill="#010101" opacity="1.000000" stroke="none" 
	d="
M328.367126,231.947113 
	C329.985443,228.466370 331.393951,225.217850 332.953033,221.622147 
	C335.095825,224.780579 336.287384,226.683670 333.239441,230.598999 
	C329.108429,235.905548 326.880615,242.698669 323.877136,248.873947 
	C323.252838,250.157486 322.806488,251.527542 322.278107,252.857742 
	C321.755890,252.685410 321.233673,252.513092 320.711456,252.340775 
	C322.423523,247.622681 324.124451,242.900513 325.852905,238.188416 
	C326.591583,236.174576 327.387512,234.181732 328.367126,231.947113 
z"/>
<path fill="#010101" opacity="1.000000" stroke="none" 
	d="
M355.525574,261.430176 
	C355.390320,260.159546 355.390320,259.188049 355.390320,258.216553 
	C355.992371,258.091919 356.594421,257.967316 357.196472,257.842682 
	C359.841797,265.540710 362.487122,273.238739 365.132416,280.936798 
	C364.318573,281.240387 363.504730,281.544006 362.690918,281.847595 
	C360.347565,275.141510 358.004211,268.435425 355.525574,261.430176 
z"/>
<path fill="#000000" opacity="1.000000" stroke="none" 
	d="
M353.269226,275.618713 
	C354.409149,278.537292 355.412262,281.097168 356.447601,283.739258 
	C351.997620,283.705505 345.004028,265.791565 347.807922,260.750977 
	C349.690948,265.882141 351.411652,270.571075 353.269226,275.618713 
z"/>
<path fill="#454346" opacity="1.000000" stroke="none" 
	d="
M177.998886,230.962936 
	C178.293060,228.891983 178.587219,226.821030 178.923187,224.334412 
	C179.363876,228.102036 179.887741,232.278381 180.120529,236.470886 
	C180.294708,239.607895 180.093704,242.765717 180.016815,246.364349 
	C179.537064,246.900146 179.100250,246.985870 178.290298,246.596649 
	C177.944412,241.068787 177.971649,236.015854 177.998886,230.962936 
z"/>
<path fill="#898989" opacity="1.000000" stroke="none" 
	d="
M269.353821,255.415268 
	C281.026672,255.057938 292.931183,255.051270 305.283325,255.105438 
	C305.731018,255.166275 305.714905,255.520248 305.699585,255.696747 
	C293.651306,255.837479 281.618408,255.801712 269.353821,255.415268 
z"/>
<path fill="#AAAAAA" opacity="1.000000" stroke="none" 
	d="
M177.497498,222.051239 
	C176.421890,222.357224 174.915619,222.915771 173.404938,222.927979 
	C163.622025,223.007126 153.838150,222.967255 143.594757,222.950912 
	C147.309280,222.641190 151.479553,222.221573 155.659058,222.085663 
	C160.463898,221.929398 165.276901,222.024246 170.549622,221.928177 
	C173.030197,221.914597 175.047485,221.982880 177.497498,222.051239 
z"/>
<path fill="#000000" opacity="1.000000" stroke="none" 
	d="
M179.998291,267.001099 
	C180.088898,267.140350 180.223953,267.266052 180.267639,267.418060 
	C182.682465,275.819855 181.231186,277.456573 171.574341,276.339020 
	C178.853531,277.502960 180.912460,273.998505 179.995148,267.408936 
	C180.006027,266.995117 180.000107,266.999817 179.998291,267.001099 
z"/>
<path fill="#454346" opacity="1.000000" stroke="none" 
	d="
M325.615784,262.743347 
	C325.311676,262.855316 324.997345,262.779205 324.683044,262.703125 
	C324.990570,262.653839 325.298065,262.604553 325.615784,262.743347 
z"/>
<path fill="#000000" opacity="1.000000" stroke="none" 
	d="
M341.478119,253.519699 
	C341.466705,253.493393 341.489532,253.546005 341.478119,253.519699 
z"/>
<path fill="#000000" opacity="1.000000" stroke="none" 
	d="
M326.499969,253.486160 
	C326.524109,253.477188 326.475830,253.495132 326.499969,253.486160 
z"/>
<path fill="#010101" opacity="1.000000" stroke="none" 
	d="
M335.496033,235.483978 
	C335.470337,235.494110 335.521759,235.473831 335.496033,235.483978 
z"/>
<path fill="#010101" opacity="1.000000" stroke="none" 
	d="
M267.006134,199.002625 
	C270.403412,199.071487 271.582001,201.326614 270.623108,203.968643 
	C270.119354,205.356659 267.716187,206.874939 266.132446,206.917709 
	C256.199829,207.185989 246.255966,207.003510 236.316833,207.087051 
	C233.191788,207.113297 230.436569,206.757812 230.542953,202.833069 
	C230.641403,199.201477 233.259140,198.797607 236.187622,199.047501 
	C237.172409,199.131516 238.173569,199.023773 240.078247,199.020721 
	C249.661545,199.026031 258.333832,199.014328 267.006134,199.002625 
z"/>
<path fill="#AAAAAA" opacity="1.000000" stroke="none" 
	d="
M237.660904,213.563110 
	C228.642700,213.925461 219.418915,213.917511 209.746994,213.868774 
	C215.531891,213.550385 221.762985,213.206650 227.998795,213.022858 
	C231.146561,212.930084 234.302872,213.126923 237.660904,213.563110 
z"/>
<path fill="#AAAAAA" opacity="1.000000" stroke="none" 
	d="
M266.821136,198.605316 
	C258.333832,199.014328 249.661545,199.026031 240.525574,199.004669 
	C242.188812,198.638626 244.313538,198.039444 246.443039,198.022018 
	C253.173126,197.966919 259.904968,198.129593 266.821136,198.605316 
z"/>
<path fill="#000000" opacity="1.000000" stroke="none" 
	d="
M225.506287,343.510010 
	C225.479416,343.521820 225.533157,343.498169 225.506287,343.510010 
z"/>
<path fill="#010101" opacity="1.000000" stroke="none" 
	d="
M152.221191,337.804260 
	C155.242844,343.595184 153.073334,347.974792 147.126038,348.930176 
	C138.374695,350.335999 138.374664,350.335999 138.909760,343.170807 
	C139.596878,333.969849 143.312881,332.362579 152.221191,337.804260 
z"/>
<path fill="#000000" opacity="1.000000" stroke="none" 
	d="
M175.472641,359.167908 
	C174.882339,355.296448 174.201904,351.753082 177.540558,349.153168 
	C181.458267,346.102386 185.342331,346.571716 187.870300,350.366211 
	C190.902420,354.917419 189.877533,361.090027 185.686478,363.518829 
	C182.209656,365.533722 177.779922,363.794312 175.472641,359.167908 
z"/>
<path fill="#000000" opacity="1.000000" stroke="none" 
	d="
M367.105469,358.155243 
	C365.728241,362.045227 363.353485,365.358429 359.608368,364.429016 
	C356.888916,363.754150 353.599060,360.796051 352.824188,358.185120 
	C352.083801,355.690186 353.547516,351.705780 355.407745,349.559479 
	C356.711090,348.055725 360.729095,347.515472 362.790619,348.360443 
	C366.552032,349.902069 367.901306,353.625549 367.105469,358.155243 
z"/>
<path fill="#000000" opacity="1.000000" stroke="none" 
	d="
M289.225433,347.994263 
	C294.613220,346.756165 299.890228,350.235748 300.747589,355.149323 
	C301.419617,359.000854 297.097412,364.361694 292.410767,364.415771 
	C290.454376,364.438385 288.212036,362.412964 286.557434,360.837860 
	C283.657379,358.077057 284.854706,354.705719 286.142883,351.646515 
	C286.688232,350.351349 287.988403,349.374023 289.225433,347.994263 
z"/>
<path fill="#010101" opacity="1.000000" stroke="none" 
	d="
M277.222900,145.780243 
	C276.465637,142.822403 275.858582,139.597153 275.457855,136.346466 
	C275.381073,135.723404 276.124268,135.004395 276.475159,134.322449 
	C277.208557,132.897156 278.915771,130.790756 278.482697,130.161240 
	C276.967102,127.958000 274.711609,127.612679 272.696320,129.996887 
	C272.383698,130.366714 271.964325,130.646271 272.438141,130.234818 
	C269.545715,129.771500 267.462677,129.437836 265.379639,129.104172 
	C265.129333,131.164841 264.879028,133.225510 264.560516,135.847916 
	C272.081848,132.693436 272.950897,133.327698 272.951752,140.611588 
	C272.952087,143.437012 273.042389,146.262421 273.122375,149.557114 
	C270.685120,149.768478 268.217224,149.510590 267.094543,149.393265 
	C264.049683,144.121841 261.536560,139.616837 258.873260,135.202423 
	C256.082153,130.576157 256.637878,123.312836 259.336487,118.749947 
	C263.208008,112.203835 274.891510,110.643166 281.133728,117.004601 
	C287.659332,123.654793 287.255646,129.844711 282.554932,137.191833 
	C280.802368,139.931061 279.145386,142.731461 277.222900,145.780243 
z"/>
<path fill="#000000" opacity="1.000000" stroke="none" 
	d="
M268.724670,153.986343 
	C268.418854,154.146561 267.752533,154.314209 267.003784,154.230957 
	C267.402313,153.984619 267.883209,153.989197 268.724670,153.986343 
z"/>
<path fill="#181818" opacity="1.000000" stroke="none" 
	d="
M275.600098,161.999527 
	C277.489014,166.058472 273.920288,165.376160 271.311951,167.672318 
	C271.609009,165.018936 271.740814,163.841675 271.936920,162.333435 
	C273.067535,162.001511 274.133881,162.000580 275.600098,161.999527 
z"/>
<path fill="#010101" opacity="1.000000" stroke="none" 
	d="
M275.950378,150.019287 
	C275.923492,150.020065 276.099365,149.798187 276.099365,149.798187 
	C276.099365,149.798187 276.102325,149.978348 276.041809,150.025162 
	C275.981262,150.071976 275.977295,150.018524 275.950378,150.019287 
z"/>
<path fill="#171717" opacity="1.000000" stroke="none" 
	d="
M271.506256,159.507217 
	C271.486572,159.514374 271.525940,159.500061 271.506256,159.507217 
z"/>
<path fill="#181818" opacity="1.000000" stroke="none" 
	d="
M277.709198,160.204224 
	C277.727020,160.314499 277.548645,160.536331 277.166595,160.864685 
	C277.159302,160.762375 277.342651,160.543900 277.709198,160.204224 
z"/>
<path fill="#1E1E1E" opacity="1.000000" stroke="none" 
	d="
M236.633850,290.410278 
	C226.382492,291.837341 216.885162,288.994324 207.243912,287.945465 
	C203.496521,287.537750 201.061340,282.276398 202.122345,276.629395 
	C203.036819,276.808685 204.018356,277.287872 204.844437,277.096405 
	C206.110184,276.803040 207.922577,276.322601 208.303268,275.417145 
	C208.753250,274.346924 208.350159,272.314148 207.525650,271.496063 
	C206.820038,270.795929 204.995392,271.138733 203.669479,271.171936 
	C202.277206,271.206726 199.727661,271.715820 199.676453,271.513428 
	C199.051239,269.042694 198.528458,266.466827 198.644470,263.948914 
	C198.670258,263.389191 201.499130,262.228058 202.664581,262.579651 
	C207.340515,263.990204 211.863754,265.903351 216.458145,267.590668 
	C217.524063,267.982147 218.683365,268.125519 219.738388,268.539307 
	C222.752045,269.721283 225.754196,270.937592 228.723541,272.226349 
	C232.309113,273.782593 235.825821,275.499817 239.428787,277.012970 
	C243.067764,278.541290 246.741287,280.003204 250.463196,281.313843 
	C254.287506,282.660553 257.364746,281.837830 260.202026,278.548584 
	C263.320526,274.933411 267.125061,271.910034 269.976776,269.240875 
	C272.981384,268.487457 275.561646,267.797333 278.162537,267.196777 
	C284.407227,265.754974 290.661621,264.355225 297.603546,262.781738 
	C296.015594,266.464478 294.447479,268.881805 294.024170,271.485291 
	C293.709656,273.419586 294.823395,275.611786 295.418427,277.654907 
	C295.635468,278.400055 296.590302,279.618469 296.536194,279.656189 
	C292.871613,282.209869 289.138428,284.665039 285.411072,287.128632 
	C280.295807,281.871674 273.817871,284.439209 267.878754,284.207642 
	C264.593964,284.079590 261.271423,284.650452 257.981842,285.040680 
	C256.537201,285.212036 254.446304,285.243683 253.819519,286.149139 
	C249.397415,292.537384 242.690292,289.396973 236.633850,290.410278 
z"/>
<path fill="#000000" opacity="1.000000" stroke="none" 
	d="
M263.183777,251.015961 
	C263.213379,254.997147 262.947540,259.008453 263.349548,262.951691 
	C263.822327,267.589508 261.287262,269.497131 257.455597,269.876740 
	C253.344055,270.284149 249.155762,270.140411 245.014221,269.949310 
	C241.831726,269.802429 239.823181,268.290253 239.962875,264.618195 
	C240.126831,260.308105 239.769836,255.971375 240.074356,251.677078 
	C240.182297,250.154770 241.587006,247.440994 242.370193,247.451599 
	C249.049622,247.541931 255.722290,248.134399 262.726196,249.119171 
	C263.098175,250.113205 263.140961,250.564575 263.183777,251.015961 
M245.018814,260.731384 
	C245.973679,264.644501 248.626694,266.133392 252.321442,265.178223 
	C255.305756,264.406769 257.501160,262.614990 256.289551,258.162415 
	C253.007584,260.980377 249.838379,263.549408 246.725601,258.854431 
	C246.169617,259.251007 245.613647,259.647614 245.018814,260.731384 
z"/>
<path fill="#898989" opacity="1.000000" stroke="none" 
	d="
M216.538162,220.860535 
	C223.763779,220.573303 231.420151,220.187225 239.080566,220.073196 
	C246.166931,219.967697 253.257614,220.153519 260.617432,220.525345 
	C260.187103,220.816406 259.485748,220.793167 258.041748,220.742920 
	C256.504578,220.763977 255.710052,220.812027 254.915543,220.860077 
	C253.572968,220.838028 252.230392,220.815994 250.092484,220.756638 
	C248.503510,220.766678 247.709854,220.814011 246.916214,220.861359 
	C242.946228,220.844421 238.976227,220.827484 234.091095,220.761536 
	C230.085999,220.761261 226.996063,220.809998 223.906113,220.858734 
	C221.594299,220.865936 219.282486,220.873154 216.538162,220.860535 
z"/>
<path fill="#AAAAAA" opacity="1.000000" stroke="none" 
	d="
M234.124466,253.000549 
	C222.226120,253.119217 210.493317,252.938354 198.529266,252.421768 
	C208.885239,252.062149 219.472519,252.012466 230.059540,252.045242 
	C231.470352,252.049606 232.879868,252.472137 234.124466,253.000549 
z"/>
<path fill="#898989" opacity="1.000000" stroke="none" 
	d="
M269.568176,220.856918 
	C270.486908,220.595566 271.866547,220.145126 273.247467,220.141144 
	C283.283356,220.112244 293.319519,220.173325 303.622925,220.523743 
	C299.258118,220.828842 294.625946,220.816147 289.246399,220.778610 
	C288.307953,220.785446 288.116913,220.817123 287.925842,220.848785 
	C281.960449,220.857361 275.995056,220.865936 269.568176,220.856918 
z"/>
<path fill="#898989" opacity="1.000000" stroke="none" 
	d="
M200.490173,255.998322 
	C201.199265,255.648544 202.354462,255.017426 203.513763,255.009811 
	C212.979828,254.947601 222.446671,255.001785 232.369293,255.058685 
	C229.180801,255.423126 225.536270,255.749466 220.982773,256.084717 
	C216.386322,256.125061 212.698853,256.156464 209.011383,256.187866 
	C206.320328,256.127197 203.629257,256.066559 200.490173,255.998322 
z"/>
<path fill="#AAAAAA" opacity="1.000000" stroke="none" 
	d="
M301.720825,252.604813 
	C291.944916,252.982452 281.948822,252.993454 271.485229,252.998245 
	C272.693848,252.673630 274.368958,252.087875 276.046204,252.081802 
	C284.530731,252.051056 293.015808,252.171051 301.720825,252.604813 
z"/>
<path fill="#171617" opacity="1.000000" stroke="none" 
	d="
M209.200806,256.509399 
	C212.698853,256.156464 216.386322,256.125061 220.530914,256.146729 
	C217.280136,259.314545 213.354340,258.424896 209.200806,256.509399 
z"/>
<path fill="#171617" opacity="1.000000" stroke="none" 
	d="
M269.815704,252.799683 
	C269.387817,253.522446 268.776184,253.971756 268.080322,254.711823 
	C267.401672,254.209381 266.807251,253.416183 266.212799,252.622986 
	C267.352509,252.590744 268.492218,252.558502 269.815704,252.799683 
z"/>
<path fill="#0B0B0B" opacity="1.000000" stroke="none" 
	d="
M224.240997,221.092697 
	C226.996063,220.809998 230.085999,220.761261 233.635010,220.784271 
	C230.921341,221.012894 227.748611,221.169785 224.240997,221.092697 
z"/>
<path fill="#0B0B0B" opacity="1.000000" stroke="none" 
	d="
M306.234192,222.005249 
	C306.874573,221.794968 307.723572,221.725677 308.778381,221.850616 
	C308.137085,222.078644 307.289948,222.112442 306.234192,222.005249 
z"/>
<path fill="#171617" opacity="1.000000" stroke="none" 
	d="
M263.398499,250.926819 
	C263.140961,250.564575 263.098175,250.113205 263.057526,249.321350 
	C263.244171,249.599808 263.428680,250.218750 263.398499,250.926819 
z"/>
<path fill="#0B0B0B" opacity="1.000000" stroke="none" 
	d="
M255.150253,221.056122 
	C255.710052,220.812027 256.504578,220.763977 257.692627,220.785431 
	C257.185791,220.987350 256.285370,221.119766 255.150253,221.056122 
z"/>
<path fill="#0B0B0B" opacity="1.000000" stroke="none" 
	d="
M247.150589,221.056793 
	C247.709854,220.814011 248.503510,220.766678 249.690094,220.789963 
	C249.183670,220.991150 248.284317,221.121704 247.150589,221.056793 
z"/>
<path fill="#0B0B0B" opacity="1.000000" stroke="none" 
	d="
M288.061035,220.936829 
	C288.116913,220.817123 288.307953,220.785446 288.785645,220.801712 
	C289.072266,220.849655 288.652222,221.074265 288.652222,221.074265 
	C288.652222,221.074265 288.196259,221.024857 288.061035,220.936829 
z"/>
<path fill="#1E1E1E" opacity="1.000000" stroke="none" 
	d="
M237.507111,292.493439 
	C237.514236,292.512878 237.499969,292.473999 237.507111,292.493439 
z"/>
<path fill="#181818" opacity="1.000000" stroke="none" 
	d="
M177.996399,230.987610 
	C177.971649,236.015854 177.944412,241.068787 177.956390,246.592285 
	C178.081787,252.161758 178.167953,257.260651 177.621155,262.717804 
	C166.708832,263.130371 156.429474,263.184692 146.150116,263.239044 
	C146.100403,262.768433 146.050690,262.297821 146.003632,260.995911 
	C146.063522,250.431000 146.120743,240.697403 146.177979,230.963791 
	C146.644089,230.962845 147.110184,230.961884 148.368454,230.927551 
	C158.788071,230.929565 168.415543,230.964951 178.042999,231.000320 
	C178.042999,231.000320 177.993912,231.012299 177.996399,230.987610 
z"/>
<path fill="#898989" opacity="1.000000" stroke="none" 
	d="
M146.120514,230.579803 
	C146.120743,240.697403 146.063522,250.431000 146.013763,260.641113 
	C145.689102,260.616486 145.069397,260.116638 145.067230,259.614075 
	C145.020752,248.863464 145.037003,238.112534 145.078125,227.361801 
	C145.079651,226.961792 145.454376,226.563217 146.361298,226.211395 
	C146.261887,227.539536 146.162476,228.867691 146.120514,230.579803 
z"/>
<path fill="#AAAAAA" opacity="1.000000" stroke="none" 
	d="
M146.454971,263.512756 
	C156.429474,263.184692 166.708832,263.130371 177.449982,263.101807 
	C174.918610,263.412933 171.927307,263.914703 168.931854,263.940918 
	C161.542191,264.005615 154.150620,263.852203 146.454971,263.512756 
z"/>
<path fill="#454346" opacity="1.000000" stroke="none" 
	d="
M177.694138,230.775024 
	C168.415543,230.964951 158.788071,230.929565 148.718033,230.927277 
	C157.965393,230.823486 167.655334,230.686600 177.694138,230.775024 
z"/>
<path fill="#171617" opacity="1.000000" stroke="none" 
	d="
M245.038239,260.387817 
	C245.613647,259.647614 246.169617,259.251007 246.725601,258.854431 
	C249.838379,263.549408 253.007584,260.980377 256.289551,258.162415 
	C257.501160,262.614990 255.305756,264.406769 252.321442,265.178223 
	C248.626694,266.133392 245.973679,264.644501 245.038239,260.387817 
z"/>
</svg>